<mxfile host="app.diagrams.net" modified="2023-08-17T11:27:41.853Z" agent="Mozilla/5.0 (Windows NT 10.0; Win64; x64) AppleWebKit/537.36 (KHTML, like Gecko) Chrome/115.0.0.0 Safari/537.36" etag="pNmPHNxG6w-aOGhJq4Ll" version="21.6.7" type="google">
  <diagram name="Page-1" id="iN1RkmsZA985cVgKsiuz">
    <mxGraphModel grid="1" page="1" gridSize="10" guides="1" tooltips="1" connect="1" arrows="1" fold="1" pageScale="1" pageWidth="1169" pageHeight="827" math="0" shadow="0">
      <root>
        <mxCell id="0" />
        <mxCell id="1" parent="0" />
        <mxCell id="3GjjzttWvD9gjzTAAPP_-1" value="" style="shape=table;startSize=0;container=1;collapsible=0;childLayout=tableLayout;fontSize=8;" vertex="1" parent="1">
          <mxGeometry x="80" y="80" width="320" height="159.0000000000001" as="geometry" />
        </mxCell>
        <mxCell id="3GjjzttWvD9gjzTAAPP_-2" value="" style="shape=tableRow;horizontal=0;startSize=0;swimlaneHead=0;swimlaneBody=0;strokeColor=inherit;top=0;left=0;bottom=0;right=0;collapsible=0;dropTarget=0;fillColor=none;points=[[0,0.5],[1,0.5]];portConstraint=eastwest;fontSize=8;" vertex="1" parent="3GjjzttWvD9gjzTAAPP_-1">
          <mxGeometry width="320" height="40" as="geometry" />
        </mxCell>
        <mxCell id="3GjjzttWvD9gjzTAAPP_-3" value="I(1,1)" style="shape=partialRectangle;html=1;whiteSpace=wrap;connectable=0;strokeColor=#000000;overflow=hidden;fillColor=#f8cecc;top=0;left=0;bottom=0;right=0;pointerEvents=1;labelBorderColor=none;strokeWidth=1;perimeterSpacing=0;fontSize=8;" vertex="1" parent="3GjjzttWvD9gjzTAAPP_-2">
          <mxGeometry width="40" height="40" as="geometry">
            <mxRectangle width="40" height="40" as="alternateBounds" />
          </mxGeometry>
        </mxCell>
        <mxCell id="3GjjzttWvD9gjzTAAPP_-4" value="I(1,2)" style="shape=partialRectangle;html=1;whiteSpace=wrap;connectable=0;strokeColor=#d79b00;overflow=hidden;fillColor=#ffe6cc;top=0;left=0;bottom=0;right=0;pointerEvents=1;fontSize=8;" vertex="1" parent="3GjjzttWvD9gjzTAAPP_-2">
          <mxGeometry x="40" width="41" height="40" as="geometry">
            <mxRectangle width="41" height="40" as="alternateBounds" />
          </mxGeometry>
        </mxCell>
        <mxCell id="3GjjzttWvD9gjzTAAPP_-5" value="" style="shape=partialRectangle;html=1;whiteSpace=wrap;connectable=0;strokeColor=inherit;overflow=hidden;fillColor=none;top=0;left=0;bottom=0;right=0;pointerEvents=1;fontSize=8;" vertex="1" parent="3GjjzttWvD9gjzTAAPP_-2">
          <mxGeometry x="81" width="39" height="40" as="geometry">
            <mxRectangle width="39" height="40" as="alternateBounds" />
          </mxGeometry>
        </mxCell>
        <mxCell id="3GjjzttWvD9gjzTAAPP_-6" value="" style="shape=partialRectangle;html=1;whiteSpace=wrap;connectable=0;strokeColor=inherit;overflow=hidden;fillColor=none;top=0;left=0;bottom=0;right=0;pointerEvents=1;fontSize=8;" vertex="1" parent="3GjjzttWvD9gjzTAAPP_-2">
          <mxGeometry x="120" width="40" height="40" as="geometry">
            <mxRectangle width="40" height="40" as="alternateBounds" />
          </mxGeometry>
        </mxCell>
        <mxCell id="3GjjzttWvD9gjzTAAPP_-7" value="" style="shape=partialRectangle;html=1;whiteSpace=wrap;connectable=0;strokeColor=inherit;overflow=hidden;fillColor=none;top=0;left=0;bottom=0;right=0;pointerEvents=1;fontSize=8;" vertex="1" parent="3GjjzttWvD9gjzTAAPP_-2">
          <mxGeometry x="160" width="40" height="40" as="geometry">
            <mxRectangle width="40" height="40" as="alternateBounds" />
          </mxGeometry>
        </mxCell>
        <mxCell id="3GjjzttWvD9gjzTAAPP_-8" value="" style="shape=partialRectangle;html=1;whiteSpace=wrap;connectable=0;strokeColor=inherit;overflow=hidden;fillColor=none;top=0;left=0;bottom=0;right=0;pointerEvents=1;fontSize=8;" vertex="1" parent="3GjjzttWvD9gjzTAAPP_-2">
          <mxGeometry x="200" width="41" height="40" as="geometry">
            <mxRectangle width="41" height="40" as="alternateBounds" />
          </mxGeometry>
        </mxCell>
        <mxCell id="3GjjzttWvD9gjzTAAPP_-9" value="" style="shape=partialRectangle;html=1;whiteSpace=wrap;connectable=0;strokeColor=inherit;overflow=hidden;fillColor=none;top=0;left=0;bottom=0;right=0;pointerEvents=1;fontSize=8;" vertex="1" parent="3GjjzttWvD9gjzTAAPP_-2">
          <mxGeometry x="241" width="39" height="40" as="geometry">
            <mxRectangle width="39" height="40" as="alternateBounds" />
          </mxGeometry>
        </mxCell>
        <mxCell id="3GjjzttWvD9gjzTAAPP_-10" value="" style="shape=partialRectangle;html=1;whiteSpace=wrap;connectable=0;strokeColor=#d6b656;overflow=hidden;fillColor=#fff2cc;top=0;left=0;bottom=0;right=0;pointerEvents=1;fontSize=8;" vertex="1" parent="3GjjzttWvD9gjzTAAPP_-2">
          <mxGeometry x="280" width="40" height="40" as="geometry">
            <mxRectangle width="40" height="40" as="alternateBounds" />
          </mxGeometry>
        </mxCell>
        <mxCell id="3GjjzttWvD9gjzTAAPP_-11" value="" style="shape=tableRow;horizontal=0;startSize=0;swimlaneHead=0;swimlaneBody=0;strokeColor=inherit;top=0;left=0;bottom=0;right=0;collapsible=0;dropTarget=0;fillColor=none;points=[[0,0.5],[1,0.5]];portConstraint=eastwest;fontSize=8;" vertex="1" parent="3GjjzttWvD9gjzTAAPP_-1">
          <mxGeometry y="40" width="320" height="39" as="geometry" />
        </mxCell>
        <mxCell id="3GjjzttWvD9gjzTAAPP_-12" value="I(2,1)" style="shape=partialRectangle;html=1;whiteSpace=wrap;connectable=0;strokeColor=#b85450;overflow=hidden;fillColor=#f8cecc;top=0;left=0;bottom=0;right=0;pointerEvents=1;labelBorderColor=none;strokeWidth=1;perimeterSpacing=0;fontSize=8;" vertex="1" parent="3GjjzttWvD9gjzTAAPP_-11">
          <mxGeometry width="40" height="39" as="geometry">
            <mxRectangle width="40" height="39" as="alternateBounds" />
          </mxGeometry>
        </mxCell>
        <mxCell id="3GjjzttWvD9gjzTAAPP_-13" value="I(2,2))" style="shape=partialRectangle;html=1;whiteSpace=wrap;connectable=0;strokeColor=#d79b00;overflow=hidden;fillColor=#ffe6cc;top=0;left=0;bottom=0;right=0;pointerEvents=1;fontSize=8;" vertex="1" parent="3GjjzttWvD9gjzTAAPP_-11">
          <mxGeometry x="40" width="41" height="39" as="geometry">
            <mxRectangle width="41" height="39" as="alternateBounds" />
          </mxGeometry>
        </mxCell>
        <mxCell id="3GjjzttWvD9gjzTAAPP_-14" value="" style="shape=partialRectangle;html=1;whiteSpace=wrap;connectable=0;strokeColor=inherit;overflow=hidden;fillColor=none;top=0;left=0;bottom=0;right=0;pointerEvents=1;fontSize=8;" vertex="1" parent="3GjjzttWvD9gjzTAAPP_-11">
          <mxGeometry x="81" width="39" height="39" as="geometry">
            <mxRectangle width="39" height="39" as="alternateBounds" />
          </mxGeometry>
        </mxCell>
        <mxCell id="3GjjzttWvD9gjzTAAPP_-15" value="" style="shape=partialRectangle;html=1;whiteSpace=wrap;connectable=0;strokeColor=inherit;overflow=hidden;fillColor=none;top=0;left=0;bottom=0;right=0;pointerEvents=1;fontSize=8;" vertex="1" parent="3GjjzttWvD9gjzTAAPP_-11">
          <mxGeometry x="120" width="40" height="39" as="geometry">
            <mxRectangle width="40" height="39" as="alternateBounds" />
          </mxGeometry>
        </mxCell>
        <mxCell id="3GjjzttWvD9gjzTAAPP_-16" value="" style="shape=partialRectangle;html=1;whiteSpace=wrap;connectable=0;strokeColor=inherit;overflow=hidden;fillColor=none;top=0;left=0;bottom=0;right=0;pointerEvents=1;fontSize=8;" vertex="1" parent="3GjjzttWvD9gjzTAAPP_-11">
          <mxGeometry x="160" width="40" height="39" as="geometry">
            <mxRectangle width="40" height="39" as="alternateBounds" />
          </mxGeometry>
        </mxCell>
        <mxCell id="3GjjzttWvD9gjzTAAPP_-17" value="" style="shape=partialRectangle;html=1;whiteSpace=wrap;connectable=0;strokeColor=inherit;overflow=hidden;fillColor=none;top=0;left=0;bottom=0;right=0;pointerEvents=1;fontSize=8;" vertex="1" parent="3GjjzttWvD9gjzTAAPP_-11">
          <mxGeometry x="200" width="41" height="39" as="geometry">
            <mxRectangle width="41" height="39" as="alternateBounds" />
          </mxGeometry>
        </mxCell>
        <mxCell id="3GjjzttWvD9gjzTAAPP_-18" value="" style="shape=partialRectangle;html=1;whiteSpace=wrap;connectable=0;strokeColor=inherit;overflow=hidden;fillColor=none;top=0;left=0;bottom=0;right=0;pointerEvents=1;fontSize=8;" vertex="1" parent="3GjjzttWvD9gjzTAAPP_-11">
          <mxGeometry x="241" width="39" height="39" as="geometry">
            <mxRectangle width="39" height="39" as="alternateBounds" />
          </mxGeometry>
        </mxCell>
        <mxCell id="3GjjzttWvD9gjzTAAPP_-19" value="" style="shape=partialRectangle;html=1;whiteSpace=wrap;connectable=0;strokeColor=#d6b656;overflow=hidden;fillColor=#fff2cc;top=0;left=0;bottom=0;right=0;pointerEvents=1;fontSize=8;" vertex="1" parent="3GjjzttWvD9gjzTAAPP_-11">
          <mxGeometry x="280" width="40" height="39" as="geometry">
            <mxRectangle width="40" height="39" as="alternateBounds" />
          </mxGeometry>
        </mxCell>
        <mxCell id="3GjjzttWvD9gjzTAAPP_-20" value="" style="shape=tableRow;horizontal=0;startSize=0;swimlaneHead=0;swimlaneBody=0;strokeColor=inherit;top=0;left=0;bottom=0;right=0;collapsible=0;dropTarget=0;fillColor=none;points=[[0,0.5],[1,0.5]];portConstraint=eastwest;fontSize=8;" vertex="1" parent="3GjjzttWvD9gjzTAAPP_-1">
          <mxGeometry y="79" width="320" height="41" as="geometry" />
        </mxCell>
        <mxCell id="3GjjzttWvD9gjzTAAPP_-21" value="I(3,1)" style="shape=partialRectangle;html=1;whiteSpace=wrap;connectable=0;strokeColor=#b85450;overflow=hidden;fillColor=#f8cecc;top=0;left=0;bottom=0;right=0;pointerEvents=1;labelBorderColor=none;strokeWidth=1;perimeterSpacing=0;fontSize=8;" vertex="1" parent="3GjjzttWvD9gjzTAAPP_-20">
          <mxGeometry width="40" height="41" as="geometry">
            <mxRectangle width="40" height="41" as="alternateBounds" />
          </mxGeometry>
        </mxCell>
        <mxCell id="3GjjzttWvD9gjzTAAPP_-22" value="I(3,2)" style="shape=partialRectangle;html=1;whiteSpace=wrap;connectable=0;strokeColor=#d79b00;overflow=hidden;fillColor=#ffe6cc;top=0;left=0;bottom=0;right=0;pointerEvents=1;fontSize=8;" vertex="1" parent="3GjjzttWvD9gjzTAAPP_-20">
          <mxGeometry x="40" width="41" height="41" as="geometry">
            <mxRectangle width="41" height="41" as="alternateBounds" />
          </mxGeometry>
        </mxCell>
        <mxCell id="3GjjzttWvD9gjzTAAPP_-23" value="" style="shape=partialRectangle;html=1;whiteSpace=wrap;connectable=0;strokeColor=inherit;overflow=hidden;fillColor=none;top=0;left=0;bottom=0;right=0;pointerEvents=1;fontSize=8;" vertex="1" parent="3GjjzttWvD9gjzTAAPP_-20">
          <mxGeometry x="81" width="39" height="41" as="geometry">
            <mxRectangle width="39" height="41" as="alternateBounds" />
          </mxGeometry>
        </mxCell>
        <mxCell id="3GjjzttWvD9gjzTAAPP_-24" value="" style="shape=partialRectangle;html=1;whiteSpace=wrap;connectable=0;strokeColor=inherit;overflow=hidden;fillColor=none;top=0;left=0;bottom=0;right=0;pointerEvents=1;fontSize=8;" vertex="1" parent="3GjjzttWvD9gjzTAAPP_-20">
          <mxGeometry x="120" width="40" height="41" as="geometry">
            <mxRectangle width="40" height="41" as="alternateBounds" />
          </mxGeometry>
        </mxCell>
        <mxCell id="3GjjzttWvD9gjzTAAPP_-25" value="" style="shape=partialRectangle;html=1;whiteSpace=wrap;connectable=0;strokeColor=inherit;overflow=hidden;fillColor=none;top=0;left=0;bottom=0;right=0;pointerEvents=1;fontSize=8;" vertex="1" parent="3GjjzttWvD9gjzTAAPP_-20">
          <mxGeometry x="160" width="40" height="41" as="geometry">
            <mxRectangle width="40" height="41" as="alternateBounds" />
          </mxGeometry>
        </mxCell>
        <mxCell id="3GjjzttWvD9gjzTAAPP_-26" value="" style="shape=partialRectangle;html=1;whiteSpace=wrap;connectable=0;strokeColor=inherit;overflow=hidden;fillColor=none;top=0;left=0;bottom=0;right=0;pointerEvents=1;fontSize=8;" vertex="1" parent="3GjjzttWvD9gjzTAAPP_-20">
          <mxGeometry x="200" width="41" height="41" as="geometry">
            <mxRectangle width="41" height="41" as="alternateBounds" />
          </mxGeometry>
        </mxCell>
        <mxCell id="3GjjzttWvD9gjzTAAPP_-27" value="" style="shape=partialRectangle;html=1;whiteSpace=wrap;connectable=0;strokeColor=inherit;overflow=hidden;fillColor=none;top=0;left=0;bottom=0;right=0;pointerEvents=1;fontSize=8;" vertex="1" parent="3GjjzttWvD9gjzTAAPP_-20">
          <mxGeometry x="241" width="39" height="41" as="geometry">
            <mxRectangle width="39" height="41" as="alternateBounds" />
          </mxGeometry>
        </mxCell>
        <mxCell id="3GjjzttWvD9gjzTAAPP_-28" value="" style="shape=partialRectangle;html=1;whiteSpace=wrap;connectable=0;strokeColor=#d6b656;overflow=hidden;fillColor=#fff2cc;top=0;left=0;bottom=0;right=0;pointerEvents=1;fontSize=8;" vertex="1" parent="3GjjzttWvD9gjzTAAPP_-20">
          <mxGeometry x="280" width="40" height="41" as="geometry">
            <mxRectangle width="40" height="41" as="alternateBounds" />
          </mxGeometry>
        </mxCell>
        <mxCell id="3GjjzttWvD9gjzTAAPP_-29" value="" style="shape=tableRow;horizontal=0;startSize=0;swimlaneHead=0;swimlaneBody=0;strokeColor=inherit;top=0;left=0;bottom=0;right=0;collapsible=0;dropTarget=0;fillColor=none;points=[[0,0.5],[1,0.5]];portConstraint=eastwest;fontSize=8;" vertex="1" parent="3GjjzttWvD9gjzTAAPP_-1">
          <mxGeometry y="120" width="320" height="39" as="geometry" />
        </mxCell>
        <mxCell id="3GjjzttWvD9gjzTAAPP_-30" value="I(L,1)" style="shape=partialRectangle;html=1;whiteSpace=wrap;connectable=0;strokeColor=#b85450;overflow=hidden;fillColor=#f8cecc;top=0;left=0;bottom=0;right=0;pointerEvents=1;labelBorderColor=none;strokeWidth=1;perimeterSpacing=0;fontSize=8;" vertex="1" parent="3GjjzttWvD9gjzTAAPP_-29">
          <mxGeometry width="40" height="39" as="geometry">
            <mxRectangle width="40" height="39" as="alternateBounds" />
          </mxGeometry>
        </mxCell>
        <mxCell id="3GjjzttWvD9gjzTAAPP_-31" value="I(L,2)" style="shape=partialRectangle;html=1;whiteSpace=wrap;connectable=0;strokeColor=#d79b00;overflow=hidden;fillColor=#ffe6cc;top=0;left=0;bottom=0;right=0;pointerEvents=1;fontSize=8;" vertex="1" parent="3GjjzttWvD9gjzTAAPP_-29">
          <mxGeometry x="40" width="41" height="39" as="geometry">
            <mxRectangle width="41" height="39" as="alternateBounds" />
          </mxGeometry>
        </mxCell>
        <mxCell id="3GjjzttWvD9gjzTAAPP_-32" value="" style="shape=partialRectangle;html=1;whiteSpace=wrap;connectable=0;strokeColor=inherit;overflow=hidden;fillColor=none;top=0;left=0;bottom=0;right=0;pointerEvents=1;fontSize=8;" vertex="1" parent="3GjjzttWvD9gjzTAAPP_-29">
          <mxGeometry x="81" width="39" height="39" as="geometry">
            <mxRectangle width="39" height="39" as="alternateBounds" />
          </mxGeometry>
        </mxCell>
        <mxCell id="3GjjzttWvD9gjzTAAPP_-33" value="" style="shape=partialRectangle;html=1;whiteSpace=wrap;connectable=0;strokeColor=inherit;overflow=hidden;fillColor=none;top=0;left=0;bottom=0;right=0;pointerEvents=1;fontSize=8;" vertex="1" parent="3GjjzttWvD9gjzTAAPP_-29">
          <mxGeometry x="120" width="40" height="39" as="geometry">
            <mxRectangle width="40" height="39" as="alternateBounds" />
          </mxGeometry>
        </mxCell>
        <mxCell id="3GjjzttWvD9gjzTAAPP_-34" value="" style="shape=partialRectangle;html=1;whiteSpace=wrap;connectable=0;strokeColor=inherit;overflow=hidden;fillColor=none;top=0;left=0;bottom=0;right=0;pointerEvents=1;fontSize=8;" vertex="1" parent="3GjjzttWvD9gjzTAAPP_-29">
          <mxGeometry x="160" width="40" height="39" as="geometry">
            <mxRectangle width="40" height="39" as="alternateBounds" />
          </mxGeometry>
        </mxCell>
        <mxCell id="3GjjzttWvD9gjzTAAPP_-35" value="" style="shape=partialRectangle;html=1;whiteSpace=wrap;connectable=0;strokeColor=inherit;overflow=hidden;fillColor=none;top=0;left=0;bottom=0;right=0;pointerEvents=1;fontSize=8;" vertex="1" parent="3GjjzttWvD9gjzTAAPP_-29">
          <mxGeometry x="200" width="41" height="39" as="geometry">
            <mxRectangle width="41" height="39" as="alternateBounds" />
          </mxGeometry>
        </mxCell>
        <mxCell id="3GjjzttWvD9gjzTAAPP_-36" value="" style="shape=partialRectangle;html=1;whiteSpace=wrap;connectable=0;strokeColor=inherit;overflow=hidden;fillColor=none;top=0;left=0;bottom=0;right=0;pointerEvents=1;fontSize=8;" vertex="1" parent="3GjjzttWvD9gjzTAAPP_-29">
          <mxGeometry x="241" width="39" height="39" as="geometry">
            <mxRectangle width="39" height="39" as="alternateBounds" />
          </mxGeometry>
        </mxCell>
        <mxCell id="3GjjzttWvD9gjzTAAPP_-37" value="" style="shape=partialRectangle;html=1;whiteSpace=wrap;connectable=0;strokeColor=#d6b656;overflow=hidden;fillColor=#fff2cc;top=0;left=0;bottom=0;right=0;pointerEvents=1;fontSize=8;" vertex="1" parent="3GjjzttWvD9gjzTAAPP_-29">
          <mxGeometry x="280" width="40" height="39" as="geometry">
            <mxRectangle width="40" height="39" as="alternateBounds" />
          </mxGeometry>
        </mxCell>
        <mxCell id="3GjjzttWvD9gjzTAAPP_-38" value="" style="endArrow=classic;startArrow=classic;html=1;rounded=0;fontSize=8;" edge="1" parent="1">
          <mxGeometry width="50" height="50" relative="1" as="geometry">
            <mxPoint x="80" y="70" as="sourcePoint" />
            <mxPoint x="400" y="70" as="targetPoint" />
          </mxGeometry>
        </mxCell>
        <mxCell id="3GjjzttWvD9gjzTAAPP_-43" value="512" style="edgeLabel;html=1;align=center;verticalAlign=middle;resizable=0;points=[];fontSize=8;" connectable="0" vertex="1" parent="3GjjzttWvD9gjzTAAPP_-38">
          <mxGeometry x="-0.0034" y="1" relative="1" as="geometry">
            <mxPoint as="offset" />
          </mxGeometry>
        </mxCell>
        <mxCell id="3GjjzttWvD9gjzTAAPP_-39" value="" style="endArrow=classic;startArrow=classic;html=1;rounded=0;fontSize=8;" edge="1" parent="1">
          <mxGeometry width="50" height="50" relative="1" as="geometry">
            <mxPoint x="70" y="240" as="sourcePoint" />
            <mxPoint x="70" y="80" as="targetPoint" />
          </mxGeometry>
        </mxCell>
        <mxCell id="3GjjzttWvD9gjzTAAPP_-44" value="L" style="edgeLabel;html=1;align=center;verticalAlign=middle;resizable=0;points=[];fontSize=8;" connectable="0" vertex="1" parent="3GjjzttWvD9gjzTAAPP_-39">
          <mxGeometry x="-0.0022" y="1" relative="1" as="geometry">
            <mxPoint as="offset" />
          </mxGeometry>
        </mxCell>
        <mxCell id="3GjjzttWvD9gjzTAAPP_-40" value="Input" style="text;html=1;strokeColor=none;fillColor=none;align=center;verticalAlign=middle;whiteSpace=wrap;rounded=0;fontSize=8;" vertex="1" parent="1">
          <mxGeometry x="210" y="30" width="60" height="30" as="geometry" />
        </mxCell>
        <mxCell id="3GjjzttWvD9gjzTAAPP_-47" value="Min(L) = 2&lt;br style=&quot;font-size: 8px;&quot;&gt;Max(L) = 256" style="text;html=1;strokeColor=none;fillColor=none;align=center;verticalAlign=middle;whiteSpace=wrap;rounded=0;fontSize=8;" vertex="1" parent="1">
          <mxGeometry y="170" width="70" height="30" as="geometry" />
        </mxCell>
        <mxCell id="3GjjzttWvD9gjzTAAPP_-50" value="" style="shape=cross;whiteSpace=wrap;html=1;rotation=-45;fillColor=#000000;fontSize=8;" vertex="1" parent="1">
          <mxGeometry x="436" y="135" width="50" height="50" as="geometry" />
        </mxCell>
        <mxCell id="3GjjzttWvD9gjzTAAPP_-52" value="" style="shape=table;startSize=0;container=1;collapsible=0;childLayout=tableLayout;fontSize=8;" vertex="1" parent="1">
          <mxGeometry x="520" y="80" width="160" height="320" as="geometry" />
        </mxCell>
        <mxCell id="3GjjzttWvD9gjzTAAPP_-53" value="" style="shape=tableRow;horizontal=0;startSize=0;swimlaneHead=0;swimlaneBody=0;strokeColor=inherit;top=0;left=0;bottom=0;right=0;collapsible=0;dropTarget=0;fillColor=none;points=[[0,0.5],[1,0.5]];portConstraint=eastwest;fontSize=8;" vertex="1" parent="3GjjzttWvD9gjzTAAPP_-52">
          <mxGeometry width="160" height="40" as="geometry" />
        </mxCell>
        <mxCell id="3GjjzttWvD9gjzTAAPP_-54" value="w(1,1)" style="shape=partialRectangle;html=1;whiteSpace=wrap;connectable=0;strokeColor=#b85450;overflow=hidden;fillColor=#f8cecc;top=0;left=0;bottom=0;right=0;pointerEvents=1;fontSize=8;" vertex="1" parent="3GjjzttWvD9gjzTAAPP_-53">
          <mxGeometry width="41" height="40" as="geometry">
            <mxRectangle width="41" height="40" as="alternateBounds" />
          </mxGeometry>
        </mxCell>
        <mxCell id="3GjjzttWvD9gjzTAAPP_-55" value="w(1,2)" style="shape=partialRectangle;html=1;whiteSpace=wrap;connectable=0;strokeColor=#b85450;overflow=hidden;fillColor=#f8cecc;top=0;left=0;bottom=0;right=0;pointerEvents=1;fontSize=8;" vertex="1" parent="3GjjzttWvD9gjzTAAPP_-53">
          <mxGeometry x="41" width="39" height="40" as="geometry">
            <mxRectangle width="39" height="40" as="alternateBounds" />
          </mxGeometry>
        </mxCell>
        <mxCell id="3GjjzttWvD9gjzTAAPP_-56" value="w(1,3)" style="shape=partialRectangle;html=1;whiteSpace=wrap;connectable=0;strokeColor=#b85450;overflow=hidden;fillColor=#f8cecc;top=0;left=0;bottom=0;right=0;pointerEvents=1;fontSize=8;" vertex="1" parent="3GjjzttWvD9gjzTAAPP_-53">
          <mxGeometry x="80" width="41" height="40" as="geometry">
            <mxRectangle width="41" height="40" as="alternateBounds" />
          </mxGeometry>
        </mxCell>
        <mxCell id="3GjjzttWvD9gjzTAAPP_-57" value="w(1,64)" style="shape=partialRectangle;html=1;whiteSpace=wrap;connectable=0;strokeColor=#b85450;overflow=hidden;fillColor=#f8cecc;top=0;left=0;bottom=0;right=0;pointerEvents=1;fontSize=8;" vertex="1" parent="3GjjzttWvD9gjzTAAPP_-53">
          <mxGeometry x="121" width="39" height="40" as="geometry">
            <mxRectangle width="39" height="40" as="alternateBounds" />
          </mxGeometry>
        </mxCell>
        <mxCell id="3GjjzttWvD9gjzTAAPP_-58" value="" style="shape=tableRow;horizontal=0;startSize=0;swimlaneHead=0;swimlaneBody=0;strokeColor=inherit;top=0;left=0;bottom=0;right=0;collapsible=0;dropTarget=0;fillColor=none;points=[[0,0.5],[1,0.5]];portConstraint=eastwest;fontSize=8;" vertex="1" parent="3GjjzttWvD9gjzTAAPP_-52">
          <mxGeometry y="40" width="160" height="40" as="geometry" />
        </mxCell>
        <mxCell id="3GjjzttWvD9gjzTAAPP_-59" value="w(2.,1)" style="shape=partialRectangle;html=1;whiteSpace=wrap;connectable=0;strokeColor=#d79b00;overflow=hidden;fillColor=#ffe6cc;top=0;left=0;bottom=0;right=0;pointerEvents=1;fontSize=8;" vertex="1" parent="3GjjzttWvD9gjzTAAPP_-58">
          <mxGeometry width="41" height="40" as="geometry">
            <mxRectangle width="41" height="40" as="alternateBounds" />
          </mxGeometry>
        </mxCell>
        <mxCell id="3GjjzttWvD9gjzTAAPP_-60" value="w(2,2)" style="shape=partialRectangle;html=1;whiteSpace=wrap;connectable=0;strokeColor=#d79b00;overflow=hidden;fillColor=#ffe6cc;top=0;left=0;bottom=0;right=0;pointerEvents=1;fontSize=8;" vertex="1" parent="3GjjzttWvD9gjzTAAPP_-58">
          <mxGeometry x="41" width="39" height="40" as="geometry">
            <mxRectangle width="39" height="40" as="alternateBounds" />
          </mxGeometry>
        </mxCell>
        <mxCell id="3GjjzttWvD9gjzTAAPP_-61" value="w(2,3)" style="shape=partialRectangle;html=1;whiteSpace=wrap;connectable=0;strokeColor=#d79b00;overflow=hidden;fillColor=#ffe6cc;top=0;left=0;bottom=0;right=0;pointerEvents=1;fontSize=8;" vertex="1" parent="3GjjzttWvD9gjzTAAPP_-58">
          <mxGeometry x="80" width="41" height="40" as="geometry">
            <mxRectangle width="41" height="40" as="alternateBounds" />
          </mxGeometry>
        </mxCell>
        <mxCell id="3GjjzttWvD9gjzTAAPP_-62" value="w(2,64)" style="shape=partialRectangle;html=1;whiteSpace=wrap;connectable=0;strokeColor=#d79b00;overflow=hidden;fillColor=#ffe6cc;top=0;left=0;bottom=0;right=0;pointerEvents=1;fontSize=8;" vertex="1" parent="3GjjzttWvD9gjzTAAPP_-58">
          <mxGeometry x="121" width="39" height="40" as="geometry">
            <mxRectangle width="39" height="40" as="alternateBounds" />
          </mxGeometry>
        </mxCell>
        <mxCell id="3GjjzttWvD9gjzTAAPP_-63" value="" style="shape=tableRow;horizontal=0;startSize=0;swimlaneHead=0;swimlaneBody=0;strokeColor=inherit;top=0;left=0;bottom=0;right=0;collapsible=0;dropTarget=0;fillColor=none;points=[[0,0.5],[1,0.5]];portConstraint=eastwest;fontSize=8;" vertex="1" parent="3GjjzttWvD9gjzTAAPP_-52">
          <mxGeometry y="80" width="160" height="40" as="geometry" />
        </mxCell>
        <mxCell id="3GjjzttWvD9gjzTAAPP_-64" value="" style="shape=partialRectangle;html=1;whiteSpace=wrap;connectable=0;strokeColor=inherit;overflow=hidden;fillColor=none;top=0;left=0;bottom=0;right=0;pointerEvents=1;fontSize=8;" vertex="1" parent="3GjjzttWvD9gjzTAAPP_-63">
          <mxGeometry width="41" height="40" as="geometry">
            <mxRectangle width="41" height="40" as="alternateBounds" />
          </mxGeometry>
        </mxCell>
        <mxCell id="3GjjzttWvD9gjzTAAPP_-65" value="" style="shape=partialRectangle;html=1;whiteSpace=wrap;connectable=0;strokeColor=inherit;overflow=hidden;fillColor=none;top=0;left=0;bottom=0;right=0;pointerEvents=1;fontSize=8;" vertex="1" parent="3GjjzttWvD9gjzTAAPP_-63">
          <mxGeometry x="41" width="39" height="40" as="geometry">
            <mxRectangle width="39" height="40" as="alternateBounds" />
          </mxGeometry>
        </mxCell>
        <mxCell id="3GjjzttWvD9gjzTAAPP_-66" value="" style="shape=partialRectangle;html=1;whiteSpace=wrap;connectable=0;strokeColor=inherit;overflow=hidden;fillColor=none;top=0;left=0;bottom=0;right=0;pointerEvents=1;fontSize=8;" vertex="1" parent="3GjjzttWvD9gjzTAAPP_-63">
          <mxGeometry x="80" width="41" height="40" as="geometry">
            <mxRectangle width="41" height="40" as="alternateBounds" />
          </mxGeometry>
        </mxCell>
        <mxCell id="3GjjzttWvD9gjzTAAPP_-67" value="" style="shape=partialRectangle;html=1;whiteSpace=wrap;connectable=0;strokeColor=inherit;overflow=hidden;fillColor=none;top=0;left=0;bottom=0;right=0;pointerEvents=1;fontSize=8;" vertex="1" parent="3GjjzttWvD9gjzTAAPP_-63">
          <mxGeometry x="121" width="39" height="40" as="geometry">
            <mxRectangle width="39" height="40" as="alternateBounds" />
          </mxGeometry>
        </mxCell>
        <mxCell id="3GjjzttWvD9gjzTAAPP_-68" value="" style="shape=tableRow;horizontal=0;startSize=0;swimlaneHead=0;swimlaneBody=0;strokeColor=inherit;top=0;left=0;bottom=0;right=0;collapsible=0;dropTarget=0;fillColor=none;points=[[0,0.5],[1,0.5]];portConstraint=eastwest;fontSize=8;" vertex="1" parent="3GjjzttWvD9gjzTAAPP_-52">
          <mxGeometry y="120" width="160" height="40" as="geometry" />
        </mxCell>
        <mxCell id="3GjjzttWvD9gjzTAAPP_-69" value="" style="shape=partialRectangle;html=1;whiteSpace=wrap;connectable=0;strokeColor=inherit;overflow=hidden;fillColor=none;top=0;left=0;bottom=0;right=0;pointerEvents=1;fontSize=8;" vertex="1" parent="3GjjzttWvD9gjzTAAPP_-68">
          <mxGeometry width="41" height="40" as="geometry">
            <mxRectangle width="41" height="40" as="alternateBounds" />
          </mxGeometry>
        </mxCell>
        <mxCell id="3GjjzttWvD9gjzTAAPP_-70" value="" style="shape=partialRectangle;html=1;whiteSpace=wrap;connectable=0;strokeColor=inherit;overflow=hidden;fillColor=none;top=0;left=0;bottom=0;right=0;pointerEvents=1;fontSize=8;" vertex="1" parent="3GjjzttWvD9gjzTAAPP_-68">
          <mxGeometry x="41" width="39" height="40" as="geometry">
            <mxRectangle width="39" height="40" as="alternateBounds" />
          </mxGeometry>
        </mxCell>
        <mxCell id="3GjjzttWvD9gjzTAAPP_-71" value="" style="shape=partialRectangle;html=1;whiteSpace=wrap;connectable=0;strokeColor=inherit;overflow=hidden;fillColor=none;top=0;left=0;bottom=0;right=0;pointerEvents=1;fontSize=8;" vertex="1" parent="3GjjzttWvD9gjzTAAPP_-68">
          <mxGeometry x="80" width="41" height="40" as="geometry">
            <mxRectangle width="41" height="40" as="alternateBounds" />
          </mxGeometry>
        </mxCell>
        <mxCell id="3GjjzttWvD9gjzTAAPP_-72" value="" style="shape=partialRectangle;html=1;whiteSpace=wrap;connectable=0;strokeColor=inherit;overflow=hidden;fillColor=none;top=0;left=0;bottom=0;right=0;pointerEvents=1;fontSize=8;" vertex="1" parent="3GjjzttWvD9gjzTAAPP_-68">
          <mxGeometry x="121" width="39" height="40" as="geometry">
            <mxRectangle width="39" height="40" as="alternateBounds" />
          </mxGeometry>
        </mxCell>
        <mxCell id="3GjjzttWvD9gjzTAAPP_-73" value="" style="shape=tableRow;horizontal=0;startSize=0;swimlaneHead=0;swimlaneBody=0;strokeColor=inherit;top=0;left=0;bottom=0;right=0;collapsible=0;dropTarget=0;fillColor=none;points=[[0,0.5],[1,0.5]];portConstraint=eastwest;fontSize=8;" vertex="1" parent="3GjjzttWvD9gjzTAAPP_-52">
          <mxGeometry y="160" width="160" height="40" as="geometry" />
        </mxCell>
        <mxCell id="3GjjzttWvD9gjzTAAPP_-74" value="" style="shape=partialRectangle;html=1;whiteSpace=wrap;connectable=0;strokeColor=inherit;overflow=hidden;fillColor=none;top=0;left=0;bottom=0;right=0;pointerEvents=1;fontSize=8;" vertex="1" parent="3GjjzttWvD9gjzTAAPP_-73">
          <mxGeometry width="41" height="40" as="geometry">
            <mxRectangle width="41" height="40" as="alternateBounds" />
          </mxGeometry>
        </mxCell>
        <mxCell id="3GjjzttWvD9gjzTAAPP_-75" value="" style="shape=partialRectangle;html=1;whiteSpace=wrap;connectable=0;strokeColor=inherit;overflow=hidden;fillColor=none;top=0;left=0;bottom=0;right=0;pointerEvents=1;fontSize=8;" vertex="1" parent="3GjjzttWvD9gjzTAAPP_-73">
          <mxGeometry x="41" width="39" height="40" as="geometry">
            <mxRectangle width="39" height="40" as="alternateBounds" />
          </mxGeometry>
        </mxCell>
        <mxCell id="3GjjzttWvD9gjzTAAPP_-76" value="" style="shape=partialRectangle;html=1;whiteSpace=wrap;connectable=0;strokeColor=inherit;overflow=hidden;fillColor=none;top=0;left=0;bottom=0;right=0;pointerEvents=1;fontSize=8;" vertex="1" parent="3GjjzttWvD9gjzTAAPP_-73">
          <mxGeometry x="80" width="41" height="40" as="geometry">
            <mxRectangle width="41" height="40" as="alternateBounds" />
          </mxGeometry>
        </mxCell>
        <mxCell id="3GjjzttWvD9gjzTAAPP_-77" value="" style="shape=partialRectangle;html=1;whiteSpace=wrap;connectable=0;strokeColor=inherit;overflow=hidden;fillColor=none;top=0;left=0;bottom=0;right=0;pointerEvents=1;fontSize=8;" vertex="1" parent="3GjjzttWvD9gjzTAAPP_-73">
          <mxGeometry x="121" width="39" height="40" as="geometry">
            <mxRectangle width="39" height="40" as="alternateBounds" />
          </mxGeometry>
        </mxCell>
        <mxCell id="3GjjzttWvD9gjzTAAPP_-78" value="" style="shape=tableRow;horizontal=0;startSize=0;swimlaneHead=0;swimlaneBody=0;strokeColor=inherit;top=0;left=0;bottom=0;right=0;collapsible=0;dropTarget=0;fillColor=none;points=[[0,0.5],[1,0.5]];portConstraint=eastwest;fontSize=8;" vertex="1" parent="3GjjzttWvD9gjzTAAPP_-52">
          <mxGeometry y="200" width="160" height="40" as="geometry" />
        </mxCell>
        <mxCell id="3GjjzttWvD9gjzTAAPP_-79" value="" style="shape=partialRectangle;html=1;whiteSpace=wrap;connectable=0;strokeColor=inherit;overflow=hidden;fillColor=none;top=0;left=0;bottom=0;right=0;pointerEvents=1;fontSize=8;" vertex="1" parent="3GjjzttWvD9gjzTAAPP_-78">
          <mxGeometry width="41" height="40" as="geometry">
            <mxRectangle width="41" height="40" as="alternateBounds" />
          </mxGeometry>
        </mxCell>
        <mxCell id="3GjjzttWvD9gjzTAAPP_-80" value="" style="shape=partialRectangle;html=1;whiteSpace=wrap;connectable=0;strokeColor=inherit;overflow=hidden;fillColor=none;top=0;left=0;bottom=0;right=0;pointerEvents=1;fontSize=8;" vertex="1" parent="3GjjzttWvD9gjzTAAPP_-78">
          <mxGeometry x="41" width="39" height="40" as="geometry">
            <mxRectangle width="39" height="40" as="alternateBounds" />
          </mxGeometry>
        </mxCell>
        <mxCell id="3GjjzttWvD9gjzTAAPP_-81" value="" style="shape=partialRectangle;html=1;whiteSpace=wrap;connectable=0;strokeColor=inherit;overflow=hidden;fillColor=none;top=0;left=0;bottom=0;right=0;pointerEvents=1;fontSize=8;" vertex="1" parent="3GjjzttWvD9gjzTAAPP_-78">
          <mxGeometry x="80" width="41" height="40" as="geometry">
            <mxRectangle width="41" height="40" as="alternateBounds" />
          </mxGeometry>
        </mxCell>
        <mxCell id="3GjjzttWvD9gjzTAAPP_-82" value="" style="shape=partialRectangle;html=1;whiteSpace=wrap;connectable=0;strokeColor=inherit;overflow=hidden;fillColor=none;top=0;left=0;bottom=0;right=0;pointerEvents=1;fontSize=8;" vertex="1" parent="3GjjzttWvD9gjzTAAPP_-78">
          <mxGeometry x="121" width="39" height="40" as="geometry">
            <mxRectangle width="39" height="40" as="alternateBounds" />
          </mxGeometry>
        </mxCell>
        <mxCell id="3GjjzttWvD9gjzTAAPP_-83" value="" style="shape=tableRow;horizontal=0;startSize=0;swimlaneHead=0;swimlaneBody=0;strokeColor=inherit;top=0;left=0;bottom=0;right=0;collapsible=0;dropTarget=0;fillColor=none;points=[[0,0.5],[1,0.5]];portConstraint=eastwest;fontSize=8;" vertex="1" parent="3GjjzttWvD9gjzTAAPP_-52">
          <mxGeometry y="240" width="160" height="40" as="geometry" />
        </mxCell>
        <mxCell id="3GjjzttWvD9gjzTAAPP_-84" value="" style="shape=partialRectangle;html=1;whiteSpace=wrap;connectable=0;strokeColor=inherit;overflow=hidden;fillColor=none;top=0;left=0;bottom=0;right=0;pointerEvents=1;fontSize=8;" vertex="1" parent="3GjjzttWvD9gjzTAAPP_-83">
          <mxGeometry width="41" height="40" as="geometry">
            <mxRectangle width="41" height="40" as="alternateBounds" />
          </mxGeometry>
        </mxCell>
        <mxCell id="3GjjzttWvD9gjzTAAPP_-85" value="" style="shape=partialRectangle;html=1;whiteSpace=wrap;connectable=0;strokeColor=inherit;overflow=hidden;fillColor=none;top=0;left=0;bottom=0;right=0;pointerEvents=1;fontSize=8;" vertex="1" parent="3GjjzttWvD9gjzTAAPP_-83">
          <mxGeometry x="41" width="39" height="40" as="geometry">
            <mxRectangle width="39" height="40" as="alternateBounds" />
          </mxGeometry>
        </mxCell>
        <mxCell id="3GjjzttWvD9gjzTAAPP_-86" value="" style="shape=partialRectangle;html=1;whiteSpace=wrap;connectable=0;strokeColor=inherit;overflow=hidden;fillColor=none;top=0;left=0;bottom=0;right=0;pointerEvents=1;fontSize=8;" vertex="1" parent="3GjjzttWvD9gjzTAAPP_-83">
          <mxGeometry x="80" width="41" height="40" as="geometry">
            <mxRectangle width="41" height="40" as="alternateBounds" />
          </mxGeometry>
        </mxCell>
        <mxCell id="3GjjzttWvD9gjzTAAPP_-87" value="" style="shape=partialRectangle;html=1;whiteSpace=wrap;connectable=0;strokeColor=inherit;overflow=hidden;fillColor=none;top=0;left=0;bottom=0;right=0;pointerEvents=1;fontSize=8;" vertex="1" parent="3GjjzttWvD9gjzTAAPP_-83">
          <mxGeometry x="121" width="39" height="40" as="geometry">
            <mxRectangle width="39" height="40" as="alternateBounds" />
          </mxGeometry>
        </mxCell>
        <mxCell id="3GjjzttWvD9gjzTAAPP_-88" value="" style="shape=tableRow;horizontal=0;startSize=0;swimlaneHead=0;swimlaneBody=0;strokeColor=inherit;top=0;left=0;bottom=0;right=0;collapsible=0;dropTarget=0;fillColor=none;points=[[0,0.5],[1,0.5]];portConstraint=eastwest;fontSize=8;" vertex="1" parent="3GjjzttWvD9gjzTAAPP_-52">
          <mxGeometry y="280" width="160" height="40" as="geometry" />
        </mxCell>
        <mxCell id="3GjjzttWvD9gjzTAAPP_-89" value="w(512,1)" style="shape=partialRectangle;html=1;whiteSpace=wrap;connectable=0;strokeColor=#d6b656;overflow=hidden;fillColor=#fff2cc;top=0;left=0;bottom=0;right=0;pointerEvents=1;fontSize=3;" vertex="1" parent="3GjjzttWvD9gjzTAAPP_-88">
          <mxGeometry width="41" height="40" as="geometry">
            <mxRectangle width="41" height="40" as="alternateBounds" />
          </mxGeometry>
        </mxCell>
        <mxCell id="3GjjzttWvD9gjzTAAPP_-90" value="w(512,2)" style="shape=partialRectangle;html=1;whiteSpace=wrap;connectable=0;strokeColor=#d6b656;overflow=hidden;fillColor=#fff2cc;top=0;left=0;bottom=0;right=0;pointerEvents=1;fontSize=3;" vertex="1" parent="3GjjzttWvD9gjzTAAPP_-88">
          <mxGeometry x="41" width="39" height="40" as="geometry">
            <mxRectangle width="39" height="40" as="alternateBounds" />
          </mxGeometry>
        </mxCell>
        <mxCell id="3GjjzttWvD9gjzTAAPP_-91" value="w(512,3)" style="shape=partialRectangle;html=1;whiteSpace=wrap;connectable=0;strokeColor=#d6b656;overflow=hidden;fillColor=#fff2cc;top=0;left=0;bottom=0;right=0;pointerEvents=1;fontSize=3;" vertex="1" parent="3GjjzttWvD9gjzTAAPP_-88">
          <mxGeometry x="80" width="41" height="40" as="geometry">
            <mxRectangle width="41" height="40" as="alternateBounds" />
          </mxGeometry>
        </mxCell>
        <mxCell id="3GjjzttWvD9gjzTAAPP_-92" value="w(512,64)" style="shape=partialRectangle;html=1;whiteSpace=wrap;connectable=0;strokeColor=#d6b656;overflow=hidden;fillColor=#fff2cc;top=0;left=0;bottom=0;right=0;pointerEvents=1;fontSize=3;" vertex="1" parent="3GjjzttWvD9gjzTAAPP_-88">
          <mxGeometry x="121" width="39" height="40" as="geometry">
            <mxRectangle width="39" height="40" as="alternateBounds" />
          </mxGeometry>
        </mxCell>
        <mxCell id="3GjjzttWvD9gjzTAAPP_-94" value="" style="shape=image;html=1;verticalAlign=top;verticalLabelPosition=bottom;labelBackgroundColor=#ffffff;imageAspect=0;aspect=fixed;image=https://cdn2.iconfinder.com/data/icons/css-vol-2/24/math-equal-128.png;fontSize=8;" vertex="1" parent="1">
          <mxGeometry x="694" y="115" width="90" height="90" as="geometry" />
        </mxCell>
        <mxCell id="3GjjzttWvD9gjzTAAPP_-116" value="" style="endArrow=classic;startArrow=classic;html=1;rounded=0;fontSize=8;" edge="1" parent="1">
          <mxGeometry width="50" height="50" relative="1" as="geometry">
            <mxPoint x="520" y="70" as="sourcePoint" />
            <mxPoint x="680" y="70" as="targetPoint" />
          </mxGeometry>
        </mxCell>
        <mxCell id="3GjjzttWvD9gjzTAAPP_-119" value="64" style="edgeLabel;html=1;align=center;verticalAlign=middle;resizable=0;points=[];fontSize=8;" connectable="0" vertex="1" parent="3GjjzttWvD9gjzTAAPP_-116">
          <mxGeometry x="-0.0062" y="2" relative="1" as="geometry">
            <mxPoint y="2" as="offset" />
          </mxGeometry>
        </mxCell>
        <mxCell id="3GjjzttWvD9gjzTAAPP_-120" value="" style="endArrow=classic;startArrow=classic;html=1;rounded=0;fontSize=8;" edge="1" parent="1">
          <mxGeometry width="50" height="50" relative="1" as="geometry">
            <mxPoint x="510" y="400" as="sourcePoint" />
            <mxPoint x="510" y="80" as="targetPoint" />
          </mxGeometry>
        </mxCell>
        <mxCell id="3GjjzttWvD9gjzTAAPP_-121" value="L" style="edgeLabel;html=1;align=center;verticalAlign=middle;resizable=0;points=[];fontSize=8;" connectable="0" vertex="1" parent="3GjjzttWvD9gjzTAAPP_-120">
          <mxGeometry x="-0.0022" y="1" relative="1" as="geometry">
            <mxPoint as="offset" />
          </mxGeometry>
        </mxCell>
        <mxCell id="3GjjzttWvD9gjzTAAPP_-122" value="512" style="edgeLabel;html=1;align=center;verticalAlign=middle;resizable=0;points=[];fontSize=8;" connectable="0" vertex="1" parent="3GjjzttWvD9gjzTAAPP_-120">
          <mxGeometry x="-0.0061" y="-1" relative="1" as="geometry">
            <mxPoint x="-4" as="offset" />
          </mxGeometry>
        </mxCell>
        <mxCell id="3GjjzttWvD9gjzTAAPP_-124" value="" style="endArrow=classic;startArrow=classic;html=1;rounded=0;fontSize=8;" edge="1" parent="1">
          <mxGeometry width="50" height="50" relative="1" as="geometry">
            <mxPoint x="790" y="240" as="sourcePoint" />
            <mxPoint x="790" y="80" as="targetPoint" />
          </mxGeometry>
        </mxCell>
        <mxCell id="3GjjzttWvD9gjzTAAPP_-125" value="L" style="edgeLabel;html=1;align=center;verticalAlign=middle;resizable=0;points=[];fontSize=8;" connectable="0" vertex="1" parent="3GjjzttWvD9gjzTAAPP_-124">
          <mxGeometry x="-0.0022" y="1" relative="1" as="geometry">
            <mxPoint as="offset" />
          </mxGeometry>
        </mxCell>
        <mxCell id="3GjjzttWvD9gjzTAAPP_-126" value="" style="endArrow=classic;startArrow=classic;html=1;rounded=0;fontSize=8;" edge="1" parent="1">
          <mxGeometry width="50" height="50" relative="1" as="geometry">
            <mxPoint x="800" y="70" as="sourcePoint" />
            <mxPoint x="960" y="70" as="targetPoint" />
          </mxGeometry>
        </mxCell>
        <mxCell id="3GjjzttWvD9gjzTAAPP_-127" value="64" style="edgeLabel;html=1;align=center;verticalAlign=middle;resizable=0;points=[];fontSize=8;" connectable="0" vertex="1" parent="3GjjzttWvD9gjzTAAPP_-126">
          <mxGeometry x="-0.0062" y="2" relative="1" as="geometry">
            <mxPoint y="2" as="offset" />
          </mxGeometry>
        </mxCell>
        <mxCell id="3GjjzttWvD9gjzTAAPP_-318" value="W_Q" style="text;html=1;strokeColor=none;fillColor=none;align=center;verticalAlign=middle;whiteSpace=wrap;rounded=0;fontSize=8;" vertex="1" parent="1">
          <mxGeometry x="570" y="30" width="60" height="30" as="geometry" />
        </mxCell>
        <mxCell id="3GjjzttWvD9gjzTAAPP_-319" value="Q" style="text;html=1;strokeColor=none;fillColor=none;align=center;verticalAlign=middle;whiteSpace=wrap;rounded=0;fontSize=8;" vertex="1" parent="1">
          <mxGeometry x="850" y="30" width="60" height="30" as="geometry" />
        </mxCell>
        <mxCell id="3GjjzttWvD9gjzTAAPP_-378" value="" style="group;movable=1;resizable=1;rotatable=1;deletable=1;editable=1;locked=0;connectable=1;fontSize=8;" connectable="0" vertex="1" parent="1">
          <mxGeometry y="829" width="680" height="210" as="geometry" />
        </mxCell>
        <mxCell id="3GjjzttWvD9gjzTAAPP_-324" value="" style="shape=table;startSize=0;container=1;collapsible=0;childLayout=tableLayout;fillColor=#f8cecc;strokeColor=#b85450;movable=1;resizable=1;rotatable=1;deletable=1;editable=1;locked=0;connectable=1;fontSize=8;" vertex="1" parent="3GjjzttWvD9gjzTAAPP_-378">
          <mxGeometry x="80" y="49" width="40" height="160" as="geometry" />
        </mxCell>
        <mxCell id="3GjjzttWvD9gjzTAAPP_-325" value="" style="shape=tableRow;horizontal=0;startSize=0;swimlaneHead=0;swimlaneBody=0;strokeColor=inherit;top=0;left=0;bottom=0;right=0;collapsible=0;dropTarget=0;fillColor=none;points=[[0,0.5],[1,0.5]];portConstraint=eastwest;movable=1;resizable=1;rotatable=1;deletable=1;editable=1;locked=0;connectable=1;fontSize=8;" vertex="1" parent="3GjjzttWvD9gjzTAAPP_-324">
          <mxGeometry width="40" height="40" as="geometry" />
        </mxCell>
        <mxCell id="3GjjzttWvD9gjzTAAPP_-326" value="I(1,1)" style="shape=partialRectangle;html=1;whiteSpace=wrap;connectable=1;strokeColor=inherit;overflow=hidden;fillColor=none;top=0;left=0;bottom=0;right=0;pointerEvents=1;movable=1;resizable=1;rotatable=1;deletable=1;editable=1;locked=0;fontSize=8;" vertex="1" parent="3GjjzttWvD9gjzTAAPP_-325">
          <mxGeometry width="40" height="40" as="geometry">
            <mxRectangle width="40" height="40" as="alternateBounds" />
          </mxGeometry>
        </mxCell>
        <mxCell id="3GjjzttWvD9gjzTAAPP_-327" value="" style="shape=tableRow;horizontal=0;startSize=0;swimlaneHead=0;swimlaneBody=0;strokeColor=inherit;top=0;left=0;bottom=0;right=0;collapsible=0;dropTarget=0;fillColor=none;points=[[0,0.5],[1,0.5]];portConstraint=eastwest;movable=1;resizable=1;rotatable=1;deletable=1;editable=1;locked=0;connectable=1;fontSize=8;" vertex="1" parent="3GjjzttWvD9gjzTAAPP_-324">
          <mxGeometry y="40" width="40" height="40" as="geometry" />
        </mxCell>
        <mxCell id="3GjjzttWvD9gjzTAAPP_-328" value="I(2.1)" style="shape=partialRectangle;html=1;whiteSpace=wrap;connectable=1;strokeColor=inherit;overflow=hidden;fillColor=none;top=0;left=0;bottom=0;right=0;pointerEvents=1;movable=1;resizable=1;rotatable=1;deletable=1;editable=1;locked=0;fontSize=8;" vertex="1" parent="3GjjzttWvD9gjzTAAPP_-327">
          <mxGeometry width="40" height="40" as="geometry">
            <mxRectangle width="40" height="40" as="alternateBounds" />
          </mxGeometry>
        </mxCell>
        <mxCell id="3GjjzttWvD9gjzTAAPP_-329" value="" style="shape=tableRow;horizontal=0;startSize=0;swimlaneHead=0;swimlaneBody=0;strokeColor=inherit;top=0;left=0;bottom=0;right=0;collapsible=0;dropTarget=0;fillColor=none;points=[[0,0.5],[1,0.5]];portConstraint=eastwest;movable=1;resizable=1;rotatable=1;deletable=1;editable=1;locked=0;connectable=1;fontSize=8;" vertex="1" parent="3GjjzttWvD9gjzTAAPP_-324">
          <mxGeometry y="80" width="40" height="40" as="geometry" />
        </mxCell>
        <mxCell id="3GjjzttWvD9gjzTAAPP_-330" value="I(3.1)" style="shape=partialRectangle;html=1;whiteSpace=wrap;connectable=1;strokeColor=inherit;overflow=hidden;fillColor=none;top=0;left=0;bottom=0;right=0;pointerEvents=1;movable=1;resizable=1;rotatable=1;deletable=1;editable=1;locked=0;fontSize=8;" vertex="1" parent="3GjjzttWvD9gjzTAAPP_-329">
          <mxGeometry width="40" height="40" as="geometry">
            <mxRectangle width="40" height="40" as="alternateBounds" />
          </mxGeometry>
        </mxCell>
        <mxCell id="3GjjzttWvD9gjzTAAPP_-331" value="" style="shape=tableRow;horizontal=0;startSize=0;swimlaneHead=0;swimlaneBody=0;strokeColor=inherit;top=0;left=0;bottom=0;right=0;collapsible=0;dropTarget=0;fillColor=none;points=[[0,0.5],[1,0.5]];portConstraint=eastwest;movable=1;resizable=1;rotatable=1;deletable=1;editable=1;locked=0;connectable=1;fontSize=8;" vertex="1" parent="3GjjzttWvD9gjzTAAPP_-324">
          <mxGeometry y="120" width="40" height="40" as="geometry" />
        </mxCell>
        <mxCell id="3GjjzttWvD9gjzTAAPP_-332" value="I(L,1)" style="shape=partialRectangle;html=1;whiteSpace=wrap;connectable=1;strokeColor=inherit;overflow=hidden;fillColor=none;top=0;left=0;bottom=0;right=0;pointerEvents=1;movable=1;resizable=1;rotatable=1;deletable=1;editable=1;locked=0;fontSize=8;" vertex="1" parent="3GjjzttWvD9gjzTAAPP_-331">
          <mxGeometry width="40" height="40" as="geometry">
            <mxRectangle width="40" height="40" as="alternateBounds" />
          </mxGeometry>
        </mxCell>
        <mxCell id="3GjjzttWvD9gjzTAAPP_-333" value="" style="shape=table;startSize=0;container=1;collapsible=0;childLayout=tableLayout;fillColor=#f8cecc;strokeColor=#b85450;movable=1;resizable=1;rotatable=1;deletable=1;editable=1;locked=0;connectable=1;fontSize=8;" vertex="1" parent="3GjjzttWvD9gjzTAAPP_-378">
          <mxGeometry x="240" y="109" width="160" height="40" as="geometry" />
        </mxCell>
        <mxCell id="3GjjzttWvD9gjzTAAPP_-334" value="" style="shape=tableRow;horizontal=0;startSize=0;swimlaneHead=0;swimlaneBody=0;strokeColor=inherit;top=0;left=0;bottom=0;right=0;collapsible=0;dropTarget=0;fillColor=none;points=[[0,0.5],[1,0.5]];portConstraint=eastwest;movable=1;resizable=1;rotatable=1;deletable=1;editable=1;locked=0;connectable=1;fontSize=8;" vertex="1" parent="3GjjzttWvD9gjzTAAPP_-333">
          <mxGeometry width="160" height="40" as="geometry" />
        </mxCell>
        <mxCell id="3GjjzttWvD9gjzTAAPP_-335" value="w(1,1)" style="shape=partialRectangle;html=1;whiteSpace=wrap;connectable=1;strokeColor=inherit;overflow=hidden;fillColor=none;top=0;left=0;bottom=0;right=0;pointerEvents=1;movable=1;resizable=1;rotatable=1;deletable=1;editable=1;locked=0;fontSize=8;" vertex="1" parent="3GjjzttWvD9gjzTAAPP_-334">
          <mxGeometry width="40" height="40" as="geometry">
            <mxRectangle width="40" height="40" as="alternateBounds" />
          </mxGeometry>
        </mxCell>
        <mxCell id="3GjjzttWvD9gjzTAAPP_-336" value="w(1,2)" style="shape=partialRectangle;html=1;whiteSpace=wrap;connectable=1;strokeColor=inherit;overflow=hidden;fillColor=none;top=0;left=0;bottom=0;right=0;pointerEvents=1;movable=1;resizable=1;rotatable=1;deletable=1;editable=1;locked=0;fontSize=8;" vertex="1" parent="3GjjzttWvD9gjzTAAPP_-334">
          <mxGeometry x="40" width="40" height="40" as="geometry">
            <mxRectangle width="40" height="40" as="alternateBounds" />
          </mxGeometry>
        </mxCell>
        <mxCell id="3GjjzttWvD9gjzTAAPP_-337" value="w(1,3)" style="shape=partialRectangle;html=1;whiteSpace=wrap;connectable=1;strokeColor=inherit;overflow=hidden;fillColor=none;top=0;left=0;bottom=0;right=0;pointerEvents=1;movable=1;resizable=1;rotatable=1;deletable=1;editable=1;locked=0;fontSize=8;" vertex="1" parent="3GjjzttWvD9gjzTAAPP_-334">
          <mxGeometry x="80" width="40" height="40" as="geometry">
            <mxRectangle width="40" height="40" as="alternateBounds" />
          </mxGeometry>
        </mxCell>
        <mxCell id="3GjjzttWvD9gjzTAAPP_-338" value="w(1,64)" style="shape=partialRectangle;html=1;whiteSpace=wrap;connectable=1;strokeColor=inherit;overflow=hidden;fillColor=none;top=0;left=0;bottom=0;right=0;pointerEvents=1;movable=1;resizable=1;rotatable=1;deletable=1;editable=1;locked=0;fontSize=8;" vertex="1" parent="3GjjzttWvD9gjzTAAPP_-334">
          <mxGeometry x="120" width="40" height="40" as="geometry">
            <mxRectangle width="40" height="40" as="alternateBounds" />
          </mxGeometry>
        </mxCell>
        <mxCell id="3GjjzttWvD9gjzTAAPP_-339" value="" style="shape=table;startSize=0;container=1;collapsible=0;childLayout=tableLayout;fillColor=#dae8fc;strokeColor=#6c8ebf;movable=1;resizable=1;rotatable=1;deletable=1;editable=1;locked=0;connectable=1;fontSize=8;" vertex="1" parent="3GjjzttWvD9gjzTAAPP_-378">
          <mxGeometry x="520" y="49" width="160" height="160" as="geometry" />
        </mxCell>
        <mxCell id="3GjjzttWvD9gjzTAAPP_-340" value="" style="shape=tableRow;horizontal=0;startSize=0;swimlaneHead=0;swimlaneBody=0;strokeColor=inherit;top=0;left=0;bottom=0;right=0;collapsible=0;dropTarget=0;fillColor=none;points=[[0,0.5],[1,0.5]];portConstraint=eastwest;movable=1;resizable=1;rotatable=1;deletable=1;editable=1;locked=0;connectable=1;fontSize=8;" vertex="1" parent="3GjjzttWvD9gjzTAAPP_-339">
          <mxGeometry width="160" height="40" as="geometry" />
        </mxCell>
        <mxCell id="3GjjzttWvD9gjzTAAPP_-341" value="i11w11" style="shape=partialRectangle;html=1;whiteSpace=wrap;connectable=1;strokeColor=inherit;overflow=hidden;fillColor=none;top=0;left=0;bottom=0;right=0;pointerEvents=1;movable=1;resizable=1;rotatable=1;deletable=1;editable=1;locked=0;fontSize=8;" vertex="1" parent="3GjjzttWvD9gjzTAAPP_-340">
          <mxGeometry width="40" height="40" as="geometry">
            <mxRectangle width="40" height="40" as="alternateBounds" />
          </mxGeometry>
        </mxCell>
        <mxCell id="3GjjzttWvD9gjzTAAPP_-342" value="i11w12" style="shape=partialRectangle;html=1;whiteSpace=wrap;connectable=1;strokeColor=inherit;overflow=hidden;fillColor=none;top=0;left=0;bottom=0;right=0;pointerEvents=1;movable=1;resizable=1;rotatable=1;deletable=1;editable=1;locked=0;fontSize=8;" vertex="1" parent="3GjjzttWvD9gjzTAAPP_-340">
          <mxGeometry x="40" width="40" height="40" as="geometry">
            <mxRectangle width="40" height="40" as="alternateBounds" />
          </mxGeometry>
        </mxCell>
        <mxCell id="3GjjzttWvD9gjzTAAPP_-343" value="i11w13" style="shape=partialRectangle;html=1;whiteSpace=wrap;connectable=1;strokeColor=inherit;overflow=hidden;fillColor=none;top=0;left=0;bottom=0;right=0;pointerEvents=1;movable=1;resizable=1;rotatable=1;deletable=1;editable=1;locked=0;fontSize=8;" vertex="1" parent="3GjjzttWvD9gjzTAAPP_-340">
          <mxGeometry x="80" width="40" height="40" as="geometry">
            <mxRectangle width="40" height="40" as="alternateBounds" />
          </mxGeometry>
        </mxCell>
        <mxCell id="3GjjzttWvD9gjzTAAPP_-344" value="i11w1,64" style="shape=partialRectangle;html=1;whiteSpace=wrap;connectable=1;strokeColor=inherit;overflow=hidden;fillColor=none;top=0;left=0;bottom=0;right=0;pointerEvents=1;movable=1;resizable=1;rotatable=1;deletable=1;editable=1;locked=0;fontSize=8;" vertex="1" parent="3GjjzttWvD9gjzTAAPP_-340">
          <mxGeometry x="120" width="40" height="40" as="geometry">
            <mxRectangle width="40" height="40" as="alternateBounds" />
          </mxGeometry>
        </mxCell>
        <mxCell id="3GjjzttWvD9gjzTAAPP_-345" value="" style="shape=tableRow;horizontal=0;startSize=0;swimlaneHead=0;swimlaneBody=0;strokeColor=inherit;top=0;left=0;bottom=0;right=0;collapsible=0;dropTarget=0;fillColor=none;points=[[0,0.5],[1,0.5]];portConstraint=eastwest;movable=1;resizable=1;rotatable=1;deletable=1;editable=1;locked=0;connectable=1;fontSize=8;" vertex="1" parent="3GjjzttWvD9gjzTAAPP_-339">
          <mxGeometry y="40" width="160" height="40" as="geometry" />
        </mxCell>
        <mxCell id="3GjjzttWvD9gjzTAAPP_-346" value="" style="shape=partialRectangle;html=1;whiteSpace=wrap;connectable=1;strokeColor=inherit;overflow=hidden;fillColor=none;top=0;left=0;bottom=0;right=0;pointerEvents=1;movable=1;resizable=1;rotatable=1;deletable=1;editable=1;locked=0;fontSize=8;" vertex="1" parent="3GjjzttWvD9gjzTAAPP_-345">
          <mxGeometry width="40" height="40" as="geometry">
            <mxRectangle width="40" height="40" as="alternateBounds" />
          </mxGeometry>
        </mxCell>
        <mxCell id="3GjjzttWvD9gjzTAAPP_-347" value="" style="shape=partialRectangle;html=1;whiteSpace=wrap;connectable=1;strokeColor=inherit;overflow=hidden;fillColor=none;top=0;left=0;bottom=0;right=0;pointerEvents=1;movable=1;resizable=1;rotatable=1;deletable=1;editable=1;locked=0;fontSize=8;" vertex="1" parent="3GjjzttWvD9gjzTAAPP_-345">
          <mxGeometry x="40" width="40" height="40" as="geometry">
            <mxRectangle width="40" height="40" as="alternateBounds" />
          </mxGeometry>
        </mxCell>
        <mxCell id="3GjjzttWvD9gjzTAAPP_-348" value="" style="shape=partialRectangle;html=1;whiteSpace=wrap;connectable=1;strokeColor=inherit;overflow=hidden;fillColor=none;top=0;left=0;bottom=0;right=0;pointerEvents=1;movable=1;resizable=1;rotatable=1;deletable=1;editable=1;locked=0;fontSize=8;" vertex="1" parent="3GjjzttWvD9gjzTAAPP_-345">
          <mxGeometry x="80" width="40" height="40" as="geometry">
            <mxRectangle width="40" height="40" as="alternateBounds" />
          </mxGeometry>
        </mxCell>
        <mxCell id="3GjjzttWvD9gjzTAAPP_-349" value="" style="shape=partialRectangle;html=1;whiteSpace=wrap;connectable=1;strokeColor=inherit;overflow=hidden;fillColor=none;top=0;left=0;bottom=0;right=0;pointerEvents=1;movable=1;resizable=1;rotatable=1;deletable=1;editable=1;locked=0;fontSize=8;" vertex="1" parent="3GjjzttWvD9gjzTAAPP_-345">
          <mxGeometry x="120" width="40" height="40" as="geometry">
            <mxRectangle width="40" height="40" as="alternateBounds" />
          </mxGeometry>
        </mxCell>
        <mxCell id="3GjjzttWvD9gjzTAAPP_-350" value="" style="shape=tableRow;horizontal=0;startSize=0;swimlaneHead=0;swimlaneBody=0;strokeColor=inherit;top=0;left=0;bottom=0;right=0;collapsible=0;dropTarget=0;fillColor=none;points=[[0,0.5],[1,0.5]];portConstraint=eastwest;movable=1;resizable=1;rotatable=1;deletable=1;editable=1;locked=0;connectable=1;fontSize=8;" vertex="1" parent="3GjjzttWvD9gjzTAAPP_-339">
          <mxGeometry y="80" width="160" height="40" as="geometry" />
        </mxCell>
        <mxCell id="3GjjzttWvD9gjzTAAPP_-351" value="" style="shape=partialRectangle;html=1;whiteSpace=wrap;connectable=1;strokeColor=inherit;overflow=hidden;fillColor=none;top=0;left=0;bottom=0;right=0;pointerEvents=1;movable=1;resizable=1;rotatable=1;deletable=1;editable=1;locked=0;fontSize=8;" vertex="1" parent="3GjjzttWvD9gjzTAAPP_-350">
          <mxGeometry width="40" height="40" as="geometry">
            <mxRectangle width="40" height="40" as="alternateBounds" />
          </mxGeometry>
        </mxCell>
        <mxCell id="3GjjzttWvD9gjzTAAPP_-352" value="" style="shape=partialRectangle;html=1;whiteSpace=wrap;connectable=1;strokeColor=inherit;overflow=hidden;fillColor=none;top=0;left=0;bottom=0;right=0;pointerEvents=1;movable=1;resizable=1;rotatable=1;deletable=1;editable=1;locked=0;fontSize=8;" vertex="1" parent="3GjjzttWvD9gjzTAAPP_-350">
          <mxGeometry x="40" width="40" height="40" as="geometry">
            <mxRectangle width="40" height="40" as="alternateBounds" />
          </mxGeometry>
        </mxCell>
        <mxCell id="3GjjzttWvD9gjzTAAPP_-353" value="" style="shape=partialRectangle;html=1;whiteSpace=wrap;connectable=1;strokeColor=inherit;overflow=hidden;fillColor=none;top=0;left=0;bottom=0;right=0;pointerEvents=1;movable=1;resizable=1;rotatable=1;deletable=1;editable=1;locked=0;fontSize=8;" vertex="1" parent="3GjjzttWvD9gjzTAAPP_-350">
          <mxGeometry x="80" width="40" height="40" as="geometry">
            <mxRectangle width="40" height="40" as="alternateBounds" />
          </mxGeometry>
        </mxCell>
        <mxCell id="3GjjzttWvD9gjzTAAPP_-354" value="" style="shape=partialRectangle;html=1;whiteSpace=wrap;connectable=1;strokeColor=inherit;overflow=hidden;fillColor=none;top=0;left=0;bottom=0;right=0;pointerEvents=1;movable=1;resizable=1;rotatable=1;deletable=1;editable=1;locked=0;fontSize=8;" vertex="1" parent="3GjjzttWvD9gjzTAAPP_-350">
          <mxGeometry x="120" width="40" height="40" as="geometry">
            <mxRectangle width="40" height="40" as="alternateBounds" />
          </mxGeometry>
        </mxCell>
        <mxCell id="3GjjzttWvD9gjzTAAPP_-355" value="" style="shape=tableRow;horizontal=0;startSize=0;swimlaneHead=0;swimlaneBody=0;strokeColor=inherit;top=0;left=0;bottom=0;right=0;collapsible=0;dropTarget=0;fillColor=none;points=[[0,0.5],[1,0.5]];portConstraint=eastwest;movable=1;resizable=1;rotatable=1;deletable=1;editable=1;locked=0;connectable=1;fontSize=8;" vertex="1" parent="3GjjzttWvD9gjzTAAPP_-339">
          <mxGeometry y="120" width="160" height="40" as="geometry" />
        </mxCell>
        <mxCell id="3GjjzttWvD9gjzTAAPP_-356" value="" style="shape=partialRectangle;html=1;whiteSpace=wrap;connectable=1;strokeColor=inherit;overflow=hidden;fillColor=none;top=0;left=0;bottom=0;right=0;pointerEvents=1;movable=1;resizable=1;rotatable=1;deletable=1;editable=1;locked=0;fontSize=8;" vertex="1" parent="3GjjzttWvD9gjzTAAPP_-355">
          <mxGeometry width="40" height="40" as="geometry">
            <mxRectangle width="40" height="40" as="alternateBounds" />
          </mxGeometry>
        </mxCell>
        <mxCell id="3GjjzttWvD9gjzTAAPP_-357" value="" style="shape=partialRectangle;html=1;whiteSpace=wrap;connectable=1;strokeColor=inherit;overflow=hidden;fillColor=none;top=0;left=0;bottom=0;right=0;pointerEvents=1;movable=1;resizable=1;rotatable=1;deletable=1;editable=1;locked=0;fontSize=8;" vertex="1" parent="3GjjzttWvD9gjzTAAPP_-355">
          <mxGeometry x="40" width="40" height="40" as="geometry">
            <mxRectangle width="40" height="40" as="alternateBounds" />
          </mxGeometry>
        </mxCell>
        <mxCell id="3GjjzttWvD9gjzTAAPP_-358" value="" style="shape=partialRectangle;html=1;whiteSpace=wrap;connectable=1;strokeColor=inherit;overflow=hidden;fillColor=none;top=0;left=0;bottom=0;right=0;pointerEvents=1;movable=1;resizable=1;rotatable=1;deletable=1;editable=1;locked=0;fontSize=8;" vertex="1" parent="3GjjzttWvD9gjzTAAPP_-355">
          <mxGeometry x="80" width="40" height="40" as="geometry">
            <mxRectangle width="40" height="40" as="alternateBounds" />
          </mxGeometry>
        </mxCell>
        <mxCell id="3GjjzttWvD9gjzTAAPP_-359" value="" style="shape=partialRectangle;html=1;whiteSpace=wrap;connectable=1;strokeColor=inherit;overflow=hidden;fillColor=none;top=0;left=0;bottom=0;right=0;pointerEvents=1;movable=1;resizable=1;rotatable=1;deletable=1;editable=1;locked=0;fontSize=8;" vertex="1" parent="3GjjzttWvD9gjzTAAPP_-355">
          <mxGeometry x="120" width="40" height="40" as="geometry">
            <mxRectangle width="40" height="40" as="alternateBounds" />
          </mxGeometry>
        </mxCell>
        <mxCell id="3GjjzttWvD9gjzTAAPP_-360" value="" style="shape=cross;whiteSpace=wrap;html=1;rotation=-45;fillColor=#000000;movable=1;resizable=1;rotatable=1;deletable=1;editable=1;locked=0;connectable=1;fontSize=8;" vertex="1" parent="3GjjzttWvD9gjzTAAPP_-378">
          <mxGeometry x="150" y="104" width="50" height="50" as="geometry" />
        </mxCell>
        <mxCell id="3GjjzttWvD9gjzTAAPP_-361" value="" style="shape=image;html=1;verticalAlign=top;verticalLabelPosition=bottom;labelBackgroundColor=#ffffff;imageAspect=0;aspect=fixed;image=https://cdn2.iconfinder.com/data/icons/css-vol-2/24/math-equal-128.png;movable=1;resizable=1;rotatable=1;deletable=1;editable=1;locked=0;connectable=1;fontSize=8;" vertex="1" parent="3GjjzttWvD9gjzTAAPP_-378">
          <mxGeometry x="416" y="84" width="90" height="90" as="geometry" />
        </mxCell>
        <mxCell id="3GjjzttWvD9gjzTAAPP_-365" value="" style="endArrow=classic;startArrow=classic;html=1;rounded=0;movable=1;resizable=1;rotatable=1;deletable=1;editable=1;locked=0;connectable=1;fontSize=8;" edge="1" parent="3GjjzttWvD9gjzTAAPP_-378">
          <mxGeometry width="50" height="50" relative="1" as="geometry">
            <mxPoint x="70" y="209" as="sourcePoint" />
            <mxPoint x="70" y="49" as="targetPoint" />
          </mxGeometry>
        </mxCell>
        <mxCell id="3GjjzttWvD9gjzTAAPP_-366" value="L" style="edgeLabel;html=1;align=center;verticalAlign=middle;resizable=1;points=[];movable=1;rotatable=1;deletable=1;editable=1;locked=0;connectable=1;fontSize=8;" connectable="0" vertex="1" parent="3GjjzttWvD9gjzTAAPP_-365">
          <mxGeometry x="-0.0022" y="1" relative="1" as="geometry">
            <mxPoint as="offset" />
          </mxGeometry>
        </mxCell>
        <mxCell id="3GjjzttWvD9gjzTAAPP_-368" value="" style="endArrow=classic;startArrow=classic;html=1;rounded=0;movable=1;resizable=1;rotatable=1;deletable=1;editable=1;locked=0;connectable=1;fontSize=8;" edge="1" parent="3GjjzttWvD9gjzTAAPP_-378">
          <mxGeometry width="50" height="50" relative="1" as="geometry">
            <mxPoint x="240" y="99" as="sourcePoint" />
            <mxPoint x="400" y="99" as="targetPoint" />
          </mxGeometry>
        </mxCell>
        <mxCell id="3GjjzttWvD9gjzTAAPP_-370" value="64" style="edgeLabel;html=1;align=center;verticalAlign=middle;resizable=1;points=[];movable=1;rotatable=1;deletable=1;editable=1;locked=0;connectable=1;fontSize=8;" connectable="0" vertex="1" parent="3GjjzttWvD9gjzTAAPP_-368">
          <mxGeometry x="-0.0129" y="-1" relative="1" as="geometry">
            <mxPoint as="offset" />
          </mxGeometry>
        </mxCell>
        <mxCell id="3GjjzttWvD9gjzTAAPP_-371" value="" style="endArrow=classic;startArrow=classic;html=1;rounded=0;movable=1;resizable=1;rotatable=1;deletable=1;editable=1;locked=0;connectable=1;fontSize=8;" edge="1" parent="3GjjzttWvD9gjzTAAPP_-378">
          <mxGeometry width="50" height="50" relative="1" as="geometry">
            <mxPoint x="510" y="209" as="sourcePoint" />
            <mxPoint x="510" y="49" as="targetPoint" />
          </mxGeometry>
        </mxCell>
        <mxCell id="3GjjzttWvD9gjzTAAPP_-372" value="L" style="edgeLabel;html=1;align=center;verticalAlign=middle;resizable=1;points=[];movable=1;rotatable=1;deletable=1;editable=1;locked=0;connectable=1;fontSize=8;" connectable="0" vertex="1" parent="3GjjzttWvD9gjzTAAPP_-371">
          <mxGeometry x="-0.0022" y="1" relative="1" as="geometry">
            <mxPoint as="offset" />
          </mxGeometry>
        </mxCell>
        <mxCell id="3GjjzttWvD9gjzTAAPP_-373" value="" style="endArrow=classic;startArrow=classic;html=1;rounded=0;movable=1;resizable=1;rotatable=1;deletable=1;editable=1;locked=0;connectable=1;fontSize=8;" edge="1" parent="3GjjzttWvD9gjzTAAPP_-378">
          <mxGeometry width="50" height="50" relative="1" as="geometry">
            <mxPoint x="520" y="39" as="sourcePoint" />
            <mxPoint x="680" y="39" as="targetPoint" />
          </mxGeometry>
        </mxCell>
        <mxCell id="3GjjzttWvD9gjzTAAPP_-374" value="64" style="edgeLabel;html=1;align=center;verticalAlign=middle;resizable=1;points=[];movable=1;rotatable=1;deletable=1;editable=1;locked=0;connectable=1;fontSize=8;" connectable="0" vertex="1" parent="3GjjzttWvD9gjzTAAPP_-373">
          <mxGeometry x="-0.0062" y="2" relative="1" as="geometry">
            <mxPoint y="2" as="offset" />
          </mxGeometry>
        </mxCell>
        <mxCell id="3GjjzttWvD9gjzTAAPP_-375" value="Q_1" style="text;html=1;strokeColor=none;fillColor=none;align=center;verticalAlign=middle;whiteSpace=wrap;rounded=0;movable=1;resizable=1;rotatable=1;deletable=1;editable=1;locked=0;connectable=1;fontSize=8;" vertex="1" parent="3GjjzttWvD9gjzTAAPP_-378">
          <mxGeometry x="570" width="60" height="30" as="geometry" />
        </mxCell>
        <mxCell id="3GjjzttWvD9gjzTAAPP_-376" value="Input_Column_1" style="text;html=1;strokeColor=none;fillColor=none;align=center;verticalAlign=middle;whiteSpace=wrap;rounded=0;movable=1;resizable=1;rotatable=1;deletable=1;editable=1;locked=0;connectable=1;fontSize=8;" vertex="1" parent="3GjjzttWvD9gjzTAAPP_-378">
          <mxGeometry x="50" width="100" height="30" as="geometry" />
        </mxCell>
        <mxCell id="3GjjzttWvD9gjzTAAPP_-377" value="W_Q_Row_1" style="text;html=1;strokeColor=none;fillColor=none;align=center;verticalAlign=middle;whiteSpace=wrap;rounded=0;movable=1;resizable=1;rotatable=1;deletable=1;editable=1;locked=0;connectable=1;fontSize=8;" vertex="1" parent="3GjjzttWvD9gjzTAAPP_-378">
          <mxGeometry x="270" y="59" width="100" height="30" as="geometry" />
        </mxCell>
        <mxCell id="3GjjzttWvD9gjzTAAPP_-501" value="" style="endArrow=classic;startArrow=classic;html=1;rounded=0;" edge="1" parent="3GjjzttWvD9gjzTAAPP_-378">
          <mxGeometry width="50" height="50" relative="1" as="geometry">
            <mxPoint x="80" y="41" as="sourcePoint" />
            <mxPoint x="120" y="41" as="targetPoint" />
          </mxGeometry>
        </mxCell>
        <mxCell id="3GjjzttWvD9gjzTAAPP_-502" value="1" style="edgeLabel;html=1;align=center;verticalAlign=middle;resizable=0;points=[];" connectable="0" vertex="1" parent="3GjjzttWvD9gjzTAAPP_-501">
          <mxGeometry x="0.0913" y="3" relative="1" as="geometry">
            <mxPoint x="-2" y="2" as="offset" />
          </mxGeometry>
        </mxCell>
        <mxCell id="3GjjzttWvD9gjzTAAPP_-510" value="" style="endArrow=classic;startArrow=classic;html=1;rounded=0;movable=1;resizable=1;rotatable=1;deletable=1;editable=1;locked=0;connectable=1;fontSize=8;" edge="1" parent="3GjjzttWvD9gjzTAAPP_-378">
          <mxGeometry width="50" height="50" relative="1" as="geometry">
            <mxPoint x="230" y="151" as="sourcePoint" />
            <mxPoint x="230" y="109" as="targetPoint" />
          </mxGeometry>
        </mxCell>
        <mxCell id="3GjjzttWvD9gjzTAAPP_-511" value="1" style="edgeLabel;html=1;align=center;verticalAlign=middle;resizable=1;points=[];movable=1;rotatable=1;deletable=1;editable=1;locked=0;connectable=1;fontSize=8;" connectable="0" vertex="1" parent="3GjjzttWvD9gjzTAAPP_-510">
          <mxGeometry x="-0.0022" y="1" relative="1" as="geometry">
            <mxPoint as="offset" />
          </mxGeometry>
        </mxCell>
        <mxCell id="3GjjzttWvD9gjzTAAPP_-381" value="" style="group;movable=1;resizable=1;rotatable=1;deletable=1;editable=1;locked=0;connectable=1;fontSize=8;" connectable="0" vertex="1" parent="1">
          <mxGeometry y="1069" width="680" height="210" as="geometry" />
        </mxCell>
        <mxCell id="3GjjzttWvD9gjzTAAPP_-382" value="" style="shape=table;startSize=0;container=1;collapsible=0;childLayout=tableLayout;fillColor=#ffe6cc;strokeColor=#d79b00;movable=1;resizable=1;rotatable=1;deletable=1;editable=1;locked=0;connectable=1;fontSize=8;" vertex="1" parent="3GjjzttWvD9gjzTAAPP_-381">
          <mxGeometry x="80" y="49" width="40" height="160" as="geometry" />
        </mxCell>
        <mxCell id="3GjjzttWvD9gjzTAAPP_-383" value="" style="shape=tableRow;horizontal=0;startSize=0;swimlaneHead=0;swimlaneBody=0;strokeColor=inherit;top=0;left=0;bottom=0;right=0;collapsible=0;dropTarget=0;fillColor=none;points=[[0,0.5],[1,0.5]];portConstraint=eastwest;movable=1;resizable=1;rotatable=1;deletable=1;editable=1;locked=0;connectable=1;fontSize=8;" vertex="1" parent="3GjjzttWvD9gjzTAAPP_-382">
          <mxGeometry width="40" height="40" as="geometry" />
        </mxCell>
        <mxCell id="3GjjzttWvD9gjzTAAPP_-384" value="I(2,1)" style="shape=partialRectangle;html=1;whiteSpace=wrap;connectable=1;strokeColor=inherit;overflow=hidden;fillColor=none;top=0;left=0;bottom=0;right=0;pointerEvents=1;movable=1;resizable=1;rotatable=1;deletable=1;editable=1;locked=0;fontSize=8;" vertex="1" parent="3GjjzttWvD9gjzTAAPP_-383">
          <mxGeometry width="40" height="40" as="geometry">
            <mxRectangle width="40" height="40" as="alternateBounds" />
          </mxGeometry>
        </mxCell>
        <mxCell id="3GjjzttWvD9gjzTAAPP_-385" value="" style="shape=tableRow;horizontal=0;startSize=0;swimlaneHead=0;swimlaneBody=0;strokeColor=inherit;top=0;left=0;bottom=0;right=0;collapsible=0;dropTarget=0;fillColor=none;points=[[0,0.5],[1,0.5]];portConstraint=eastwest;movable=1;resizable=1;rotatable=1;deletable=1;editable=1;locked=0;connectable=1;fontSize=8;" vertex="1" parent="3GjjzttWvD9gjzTAAPP_-382">
          <mxGeometry y="40" width="40" height="40" as="geometry" />
        </mxCell>
        <mxCell id="3GjjzttWvD9gjzTAAPP_-386" value="I(2,2)" style="shape=partialRectangle;html=1;whiteSpace=wrap;connectable=1;strokeColor=inherit;overflow=hidden;fillColor=none;top=0;left=0;bottom=0;right=0;pointerEvents=1;movable=1;resizable=1;rotatable=1;deletable=1;editable=1;locked=0;fontSize=8;" vertex="1" parent="3GjjzttWvD9gjzTAAPP_-385">
          <mxGeometry width="40" height="40" as="geometry">
            <mxRectangle width="40" height="40" as="alternateBounds" />
          </mxGeometry>
        </mxCell>
        <mxCell id="3GjjzttWvD9gjzTAAPP_-387" value="" style="shape=tableRow;horizontal=0;startSize=0;swimlaneHead=0;swimlaneBody=0;strokeColor=inherit;top=0;left=0;bottom=0;right=0;collapsible=0;dropTarget=0;fillColor=none;points=[[0,0.5],[1,0.5]];portConstraint=eastwest;movable=1;resizable=1;rotatable=1;deletable=1;editable=1;locked=0;connectable=1;fontSize=8;" vertex="1" parent="3GjjzttWvD9gjzTAAPP_-382">
          <mxGeometry y="80" width="40" height="40" as="geometry" />
        </mxCell>
        <mxCell id="3GjjzttWvD9gjzTAAPP_-388" value="I(2,3)" style="shape=partialRectangle;html=1;whiteSpace=wrap;connectable=1;strokeColor=inherit;overflow=hidden;fillColor=none;top=0;left=0;bottom=0;right=0;pointerEvents=1;movable=1;resizable=1;rotatable=1;deletable=1;editable=1;locked=0;fontSize=8;" vertex="1" parent="3GjjzttWvD9gjzTAAPP_-387">
          <mxGeometry width="40" height="40" as="geometry">
            <mxRectangle width="40" height="40" as="alternateBounds" />
          </mxGeometry>
        </mxCell>
        <mxCell id="3GjjzttWvD9gjzTAAPP_-389" value="" style="shape=tableRow;horizontal=0;startSize=0;swimlaneHead=0;swimlaneBody=0;strokeColor=inherit;top=0;left=0;bottom=0;right=0;collapsible=0;dropTarget=0;fillColor=none;points=[[0,0.5],[1,0.5]];portConstraint=eastwest;movable=1;resizable=1;rotatable=1;deletable=1;editable=1;locked=0;connectable=1;fontSize=8;" vertex="1" parent="3GjjzttWvD9gjzTAAPP_-382">
          <mxGeometry y="120" width="40" height="40" as="geometry" />
        </mxCell>
        <mxCell id="3GjjzttWvD9gjzTAAPP_-390" value="I(L,3)" style="shape=partialRectangle;html=1;whiteSpace=wrap;connectable=1;strokeColor=inherit;overflow=hidden;fillColor=none;top=0;left=0;bottom=0;right=0;pointerEvents=1;movable=1;resizable=1;rotatable=1;deletable=1;editable=1;locked=0;fontSize=8;" vertex="1" parent="3GjjzttWvD9gjzTAAPP_-389">
          <mxGeometry width="40" height="40" as="geometry">
            <mxRectangle width="40" height="40" as="alternateBounds" />
          </mxGeometry>
        </mxCell>
        <mxCell id="3GjjzttWvD9gjzTAAPP_-391" value="" style="shape=table;startSize=0;container=1;collapsible=0;childLayout=tableLayout;fillColor=#ffe6cc;strokeColor=#d79b00;movable=1;resizable=1;rotatable=1;deletable=1;editable=1;locked=0;connectable=1;fontSize=8;" vertex="1" parent="3GjjzttWvD9gjzTAAPP_-381">
          <mxGeometry x="240" y="109" width="160" height="40" as="geometry" />
        </mxCell>
        <mxCell id="3GjjzttWvD9gjzTAAPP_-392" value="" style="shape=tableRow;horizontal=0;startSize=0;swimlaneHead=0;swimlaneBody=0;strokeColor=inherit;top=0;left=0;bottom=0;right=0;collapsible=0;dropTarget=0;fillColor=none;points=[[0,0.5],[1,0.5]];portConstraint=eastwest;movable=1;resizable=1;rotatable=1;deletable=1;editable=1;locked=0;connectable=1;fontSize=8;" vertex="1" parent="3GjjzttWvD9gjzTAAPP_-391">
          <mxGeometry width="160" height="40" as="geometry" />
        </mxCell>
        <mxCell id="3GjjzttWvD9gjzTAAPP_-393" value="" style="shape=partialRectangle;html=1;whiteSpace=wrap;connectable=1;strokeColor=inherit;overflow=hidden;fillColor=none;top=0;left=0;bottom=0;right=0;pointerEvents=1;movable=1;resizable=1;rotatable=1;deletable=1;editable=1;locked=0;fontSize=8;" vertex="1" parent="3GjjzttWvD9gjzTAAPP_-392">
          <mxGeometry width="40" height="40" as="geometry">
            <mxRectangle width="40" height="40" as="alternateBounds" />
          </mxGeometry>
        </mxCell>
        <mxCell id="3GjjzttWvD9gjzTAAPP_-394" value="" style="shape=partialRectangle;html=1;whiteSpace=wrap;connectable=1;strokeColor=inherit;overflow=hidden;fillColor=none;top=0;left=0;bottom=0;right=0;pointerEvents=1;movable=1;resizable=1;rotatable=1;deletable=1;editable=1;locked=0;fontSize=8;" vertex="1" parent="3GjjzttWvD9gjzTAAPP_-392">
          <mxGeometry x="40" width="40" height="40" as="geometry">
            <mxRectangle width="40" height="40" as="alternateBounds" />
          </mxGeometry>
        </mxCell>
        <mxCell id="3GjjzttWvD9gjzTAAPP_-395" value="" style="shape=partialRectangle;html=1;whiteSpace=wrap;connectable=1;strokeColor=inherit;overflow=hidden;fillColor=none;top=0;left=0;bottom=0;right=0;pointerEvents=1;movable=1;resizable=1;rotatable=1;deletable=1;editable=1;locked=0;fontSize=8;" vertex="1" parent="3GjjzttWvD9gjzTAAPP_-392">
          <mxGeometry x="80" width="40" height="40" as="geometry">
            <mxRectangle width="40" height="40" as="alternateBounds" />
          </mxGeometry>
        </mxCell>
        <mxCell id="3GjjzttWvD9gjzTAAPP_-396" value="" style="shape=partialRectangle;html=1;whiteSpace=wrap;connectable=1;strokeColor=inherit;overflow=hidden;fillColor=none;top=0;left=0;bottom=0;right=0;pointerEvents=1;movable=1;resizable=1;rotatable=1;deletable=1;editable=1;locked=0;fontSize=8;" vertex="1" parent="3GjjzttWvD9gjzTAAPP_-392">
          <mxGeometry x="120" width="40" height="40" as="geometry">
            <mxRectangle width="40" height="40" as="alternateBounds" />
          </mxGeometry>
        </mxCell>
        <mxCell id="3GjjzttWvD9gjzTAAPP_-397" value="" style="shape=table;startSize=0;container=1;collapsible=0;childLayout=tableLayout;fillColor=#dae8fc;strokeColor=#6c8ebf;movable=1;resizable=1;rotatable=1;deletable=1;editable=1;locked=0;connectable=1;fontSize=8;" vertex="1" parent="3GjjzttWvD9gjzTAAPP_-381">
          <mxGeometry x="520" y="49" width="160" height="160" as="geometry" />
        </mxCell>
        <mxCell id="3GjjzttWvD9gjzTAAPP_-398" value="" style="shape=tableRow;horizontal=0;startSize=0;swimlaneHead=0;swimlaneBody=0;strokeColor=inherit;top=0;left=0;bottom=0;right=0;collapsible=0;dropTarget=0;fillColor=none;points=[[0,0.5],[1,0.5]];portConstraint=eastwest;movable=1;resizable=1;rotatable=1;deletable=1;editable=1;locked=0;connectable=1;fontSize=8;" vertex="1" parent="3GjjzttWvD9gjzTAAPP_-397">
          <mxGeometry width="160" height="40" as="geometry" />
        </mxCell>
        <mxCell id="3GjjzttWvD9gjzTAAPP_-399" value="" style="shape=partialRectangle;html=1;whiteSpace=wrap;connectable=1;strokeColor=inherit;overflow=hidden;fillColor=none;top=0;left=0;bottom=0;right=0;pointerEvents=1;movable=1;resizable=1;rotatable=1;deletable=1;editable=1;locked=0;fontSize=8;" vertex="1" parent="3GjjzttWvD9gjzTAAPP_-398">
          <mxGeometry width="40" height="40" as="geometry">
            <mxRectangle width="40" height="40" as="alternateBounds" />
          </mxGeometry>
        </mxCell>
        <mxCell id="3GjjzttWvD9gjzTAAPP_-400" value="" style="shape=partialRectangle;html=1;whiteSpace=wrap;connectable=1;strokeColor=inherit;overflow=hidden;fillColor=none;top=0;left=0;bottom=0;right=0;pointerEvents=1;movable=1;resizable=1;rotatable=1;deletable=1;editable=1;locked=0;fontSize=8;" vertex="1" parent="3GjjzttWvD9gjzTAAPP_-398">
          <mxGeometry x="40" width="40" height="40" as="geometry">
            <mxRectangle width="40" height="40" as="alternateBounds" />
          </mxGeometry>
        </mxCell>
        <mxCell id="3GjjzttWvD9gjzTAAPP_-401" value="" style="shape=partialRectangle;html=1;whiteSpace=wrap;connectable=1;strokeColor=inherit;overflow=hidden;fillColor=none;top=0;left=0;bottom=0;right=0;pointerEvents=1;movable=1;resizable=1;rotatable=1;deletable=1;editable=1;locked=0;fontSize=8;" vertex="1" parent="3GjjzttWvD9gjzTAAPP_-398">
          <mxGeometry x="80" width="40" height="40" as="geometry">
            <mxRectangle width="40" height="40" as="alternateBounds" />
          </mxGeometry>
        </mxCell>
        <mxCell id="3GjjzttWvD9gjzTAAPP_-402" value="" style="shape=partialRectangle;html=1;whiteSpace=wrap;connectable=1;strokeColor=inherit;overflow=hidden;fillColor=none;top=0;left=0;bottom=0;right=0;pointerEvents=1;movable=1;resizable=1;rotatable=1;deletable=1;editable=1;locked=0;fontSize=8;" vertex="1" parent="3GjjzttWvD9gjzTAAPP_-398">
          <mxGeometry x="120" width="40" height="40" as="geometry">
            <mxRectangle width="40" height="40" as="alternateBounds" />
          </mxGeometry>
        </mxCell>
        <mxCell id="3GjjzttWvD9gjzTAAPP_-403" value="" style="shape=tableRow;horizontal=0;startSize=0;swimlaneHead=0;swimlaneBody=0;strokeColor=inherit;top=0;left=0;bottom=0;right=0;collapsible=0;dropTarget=0;fillColor=none;points=[[0,0.5],[1,0.5]];portConstraint=eastwest;movable=1;resizable=1;rotatable=1;deletable=1;editable=1;locked=0;connectable=1;fontSize=8;" vertex="1" parent="3GjjzttWvD9gjzTAAPP_-397">
          <mxGeometry y="40" width="160" height="40" as="geometry" />
        </mxCell>
        <mxCell id="3GjjzttWvD9gjzTAAPP_-404" value="" style="shape=partialRectangle;html=1;whiteSpace=wrap;connectable=1;strokeColor=inherit;overflow=hidden;fillColor=none;top=0;left=0;bottom=0;right=0;pointerEvents=1;movable=1;resizable=1;rotatable=1;deletable=1;editable=1;locked=0;fontSize=8;" vertex="1" parent="3GjjzttWvD9gjzTAAPP_-403">
          <mxGeometry width="40" height="40" as="geometry">
            <mxRectangle width="40" height="40" as="alternateBounds" />
          </mxGeometry>
        </mxCell>
        <mxCell id="3GjjzttWvD9gjzTAAPP_-405" value="" style="shape=partialRectangle;html=1;whiteSpace=wrap;connectable=1;strokeColor=inherit;overflow=hidden;fillColor=none;top=0;left=0;bottom=0;right=0;pointerEvents=1;movable=1;resizable=1;rotatable=1;deletable=1;editable=1;locked=0;fontSize=8;" vertex="1" parent="3GjjzttWvD9gjzTAAPP_-403">
          <mxGeometry x="40" width="40" height="40" as="geometry">
            <mxRectangle width="40" height="40" as="alternateBounds" />
          </mxGeometry>
        </mxCell>
        <mxCell id="3GjjzttWvD9gjzTAAPP_-406" value="" style="shape=partialRectangle;html=1;whiteSpace=wrap;connectable=1;strokeColor=inherit;overflow=hidden;fillColor=none;top=0;left=0;bottom=0;right=0;pointerEvents=1;movable=1;resizable=1;rotatable=1;deletable=1;editable=1;locked=0;fontSize=8;" vertex="1" parent="3GjjzttWvD9gjzTAAPP_-403">
          <mxGeometry x="80" width="40" height="40" as="geometry">
            <mxRectangle width="40" height="40" as="alternateBounds" />
          </mxGeometry>
        </mxCell>
        <mxCell id="3GjjzttWvD9gjzTAAPP_-407" value="" style="shape=partialRectangle;html=1;whiteSpace=wrap;connectable=1;strokeColor=inherit;overflow=hidden;fillColor=none;top=0;left=0;bottom=0;right=0;pointerEvents=1;movable=1;resizable=1;rotatable=1;deletable=1;editable=1;locked=0;fontSize=8;" vertex="1" parent="3GjjzttWvD9gjzTAAPP_-403">
          <mxGeometry x="120" width="40" height="40" as="geometry">
            <mxRectangle width="40" height="40" as="alternateBounds" />
          </mxGeometry>
        </mxCell>
        <mxCell id="3GjjzttWvD9gjzTAAPP_-408" value="" style="shape=tableRow;horizontal=0;startSize=0;swimlaneHead=0;swimlaneBody=0;strokeColor=inherit;top=0;left=0;bottom=0;right=0;collapsible=0;dropTarget=0;fillColor=none;points=[[0,0.5],[1,0.5]];portConstraint=eastwest;movable=1;resizable=1;rotatable=1;deletable=1;editable=1;locked=0;connectable=1;fontSize=8;" vertex="1" parent="3GjjzttWvD9gjzTAAPP_-397">
          <mxGeometry y="80" width="160" height="40" as="geometry" />
        </mxCell>
        <mxCell id="3GjjzttWvD9gjzTAAPP_-409" value="" style="shape=partialRectangle;html=1;whiteSpace=wrap;connectable=1;strokeColor=inherit;overflow=hidden;fillColor=none;top=0;left=0;bottom=0;right=0;pointerEvents=1;movable=1;resizable=1;rotatable=1;deletable=1;editable=1;locked=0;fontSize=8;" vertex="1" parent="3GjjzttWvD9gjzTAAPP_-408">
          <mxGeometry width="40" height="40" as="geometry">
            <mxRectangle width="40" height="40" as="alternateBounds" />
          </mxGeometry>
        </mxCell>
        <mxCell id="3GjjzttWvD9gjzTAAPP_-410" value="" style="shape=partialRectangle;html=1;whiteSpace=wrap;connectable=1;strokeColor=inherit;overflow=hidden;fillColor=none;top=0;left=0;bottom=0;right=0;pointerEvents=1;movable=1;resizable=1;rotatable=1;deletable=1;editable=1;locked=0;fontSize=8;" vertex="1" parent="3GjjzttWvD9gjzTAAPP_-408">
          <mxGeometry x="40" width="40" height="40" as="geometry">
            <mxRectangle width="40" height="40" as="alternateBounds" />
          </mxGeometry>
        </mxCell>
        <mxCell id="3GjjzttWvD9gjzTAAPP_-411" value="" style="shape=partialRectangle;html=1;whiteSpace=wrap;connectable=1;strokeColor=inherit;overflow=hidden;fillColor=none;top=0;left=0;bottom=0;right=0;pointerEvents=1;movable=1;resizable=1;rotatable=1;deletable=1;editable=1;locked=0;fontSize=8;" vertex="1" parent="3GjjzttWvD9gjzTAAPP_-408">
          <mxGeometry x="80" width="40" height="40" as="geometry">
            <mxRectangle width="40" height="40" as="alternateBounds" />
          </mxGeometry>
        </mxCell>
        <mxCell id="3GjjzttWvD9gjzTAAPP_-412" value="" style="shape=partialRectangle;html=1;whiteSpace=wrap;connectable=1;strokeColor=inherit;overflow=hidden;fillColor=none;top=0;left=0;bottom=0;right=0;pointerEvents=1;movable=1;resizable=1;rotatable=1;deletable=1;editable=1;locked=0;fontSize=8;" vertex="1" parent="3GjjzttWvD9gjzTAAPP_-408">
          <mxGeometry x="120" width="40" height="40" as="geometry">
            <mxRectangle width="40" height="40" as="alternateBounds" />
          </mxGeometry>
        </mxCell>
        <mxCell id="3GjjzttWvD9gjzTAAPP_-413" value="" style="shape=tableRow;horizontal=0;startSize=0;swimlaneHead=0;swimlaneBody=0;strokeColor=inherit;top=0;left=0;bottom=0;right=0;collapsible=0;dropTarget=0;fillColor=none;points=[[0,0.5],[1,0.5]];portConstraint=eastwest;movable=1;resizable=1;rotatable=1;deletable=1;editable=1;locked=0;connectable=1;fontSize=8;" vertex="1" parent="3GjjzttWvD9gjzTAAPP_-397">
          <mxGeometry y="120" width="160" height="40" as="geometry" />
        </mxCell>
        <mxCell id="3GjjzttWvD9gjzTAAPP_-414" value="" style="shape=partialRectangle;html=1;whiteSpace=wrap;connectable=1;strokeColor=inherit;overflow=hidden;fillColor=none;top=0;left=0;bottom=0;right=0;pointerEvents=1;movable=1;resizable=1;rotatable=1;deletable=1;editable=1;locked=0;fontSize=8;" vertex="1" parent="3GjjzttWvD9gjzTAAPP_-413">
          <mxGeometry width="40" height="40" as="geometry">
            <mxRectangle width="40" height="40" as="alternateBounds" />
          </mxGeometry>
        </mxCell>
        <mxCell id="3GjjzttWvD9gjzTAAPP_-415" value="" style="shape=partialRectangle;html=1;whiteSpace=wrap;connectable=1;strokeColor=inherit;overflow=hidden;fillColor=none;top=0;left=0;bottom=0;right=0;pointerEvents=1;movable=1;resizable=1;rotatable=1;deletable=1;editable=1;locked=0;fontSize=8;" vertex="1" parent="3GjjzttWvD9gjzTAAPP_-413">
          <mxGeometry x="40" width="40" height="40" as="geometry">
            <mxRectangle width="40" height="40" as="alternateBounds" />
          </mxGeometry>
        </mxCell>
        <mxCell id="3GjjzttWvD9gjzTAAPP_-416" value="" style="shape=partialRectangle;html=1;whiteSpace=wrap;connectable=1;strokeColor=inherit;overflow=hidden;fillColor=none;top=0;left=0;bottom=0;right=0;pointerEvents=1;movable=1;resizable=1;rotatable=1;deletable=1;editable=1;locked=0;fontSize=8;" vertex="1" parent="3GjjzttWvD9gjzTAAPP_-413">
          <mxGeometry x="80" width="40" height="40" as="geometry">
            <mxRectangle width="40" height="40" as="alternateBounds" />
          </mxGeometry>
        </mxCell>
        <mxCell id="3GjjzttWvD9gjzTAAPP_-417" value="" style="shape=partialRectangle;html=1;whiteSpace=wrap;connectable=1;strokeColor=inherit;overflow=hidden;fillColor=none;top=0;left=0;bottom=0;right=0;pointerEvents=1;movable=1;resizable=1;rotatable=1;deletable=1;editable=1;locked=0;fontSize=8;" vertex="1" parent="3GjjzttWvD9gjzTAAPP_-413">
          <mxGeometry x="120" width="40" height="40" as="geometry">
            <mxRectangle width="40" height="40" as="alternateBounds" />
          </mxGeometry>
        </mxCell>
        <mxCell id="3GjjzttWvD9gjzTAAPP_-418" value="" style="shape=cross;whiteSpace=wrap;html=1;rotation=-45;fillColor=#000000;movable=1;resizable=1;rotatable=1;deletable=1;editable=1;locked=0;connectable=1;fontSize=8;" vertex="1" parent="3GjjzttWvD9gjzTAAPP_-381">
          <mxGeometry x="150" y="104" width="50" height="50" as="geometry" />
        </mxCell>
        <mxCell id="3GjjzttWvD9gjzTAAPP_-419" value="" style="shape=image;html=1;verticalAlign=top;verticalLabelPosition=bottom;labelBackgroundColor=#ffffff;imageAspect=0;aspect=fixed;image=https://cdn2.iconfinder.com/data/icons/css-vol-2/24/math-equal-128.png;movable=1;resizable=1;rotatable=1;deletable=1;editable=1;locked=0;connectable=1;fontSize=8;" vertex="1" parent="3GjjzttWvD9gjzTAAPP_-381">
          <mxGeometry x="416" y="84" width="90" height="90" as="geometry" />
        </mxCell>
        <mxCell id="3GjjzttWvD9gjzTAAPP_-420" value="" style="endArrow=classic;startArrow=classic;html=1;rounded=0;movable=1;resizable=1;rotatable=1;deletable=1;editable=1;locked=0;connectable=1;fontSize=8;" edge="1" parent="3GjjzttWvD9gjzTAAPP_-381">
          <mxGeometry width="50" height="50" relative="1" as="geometry">
            <mxPoint x="70" y="209" as="sourcePoint" />
            <mxPoint x="70" y="49" as="targetPoint" />
          </mxGeometry>
        </mxCell>
        <mxCell id="3GjjzttWvD9gjzTAAPP_-421" value="L" style="edgeLabel;html=1;align=center;verticalAlign=middle;resizable=1;points=[];movable=1;rotatable=1;deletable=1;editable=1;locked=0;connectable=1;fontSize=8;" connectable="0" vertex="1" parent="3GjjzttWvD9gjzTAAPP_-420">
          <mxGeometry x="-0.0022" y="1" relative="1" as="geometry">
            <mxPoint as="offset" />
          </mxGeometry>
        </mxCell>
        <mxCell id="3GjjzttWvD9gjzTAAPP_-423" value="" style="endArrow=classic;startArrow=classic;html=1;rounded=0;movable=1;resizable=1;rotatable=1;deletable=1;editable=1;locked=0;connectable=1;fontSize=8;" edge="1" parent="3GjjzttWvD9gjzTAAPP_-381">
          <mxGeometry width="50" height="50" relative="1" as="geometry">
            <mxPoint x="240" y="99" as="sourcePoint" />
            <mxPoint x="400" y="99" as="targetPoint" />
          </mxGeometry>
        </mxCell>
        <mxCell id="3GjjzttWvD9gjzTAAPP_-424" value="64" style="edgeLabel;html=1;align=center;verticalAlign=middle;resizable=1;points=[];movable=1;rotatable=1;deletable=1;editable=1;locked=0;connectable=1;fontSize=8;" connectable="0" vertex="1" parent="3GjjzttWvD9gjzTAAPP_-423">
          <mxGeometry x="-0.0129" y="-1" relative="1" as="geometry">
            <mxPoint as="offset" />
          </mxGeometry>
        </mxCell>
        <mxCell id="3GjjzttWvD9gjzTAAPP_-425" value="" style="endArrow=classic;startArrow=classic;html=1;rounded=0;movable=1;resizable=1;rotatable=1;deletable=1;editable=1;locked=0;connectable=1;fontSize=8;" edge="1" parent="3GjjzttWvD9gjzTAAPP_-381">
          <mxGeometry width="50" height="50" relative="1" as="geometry">
            <mxPoint x="510" y="209" as="sourcePoint" />
            <mxPoint x="510" y="49" as="targetPoint" />
          </mxGeometry>
        </mxCell>
        <mxCell id="3GjjzttWvD9gjzTAAPP_-426" value="L" style="edgeLabel;html=1;align=center;verticalAlign=middle;resizable=1;points=[];movable=1;rotatable=1;deletable=1;editable=1;locked=0;connectable=1;fontSize=8;" connectable="0" vertex="1" parent="3GjjzttWvD9gjzTAAPP_-425">
          <mxGeometry x="-0.0022" y="1" relative="1" as="geometry">
            <mxPoint as="offset" />
          </mxGeometry>
        </mxCell>
        <mxCell id="3GjjzttWvD9gjzTAAPP_-427" value="" style="endArrow=classic;startArrow=classic;html=1;rounded=0;movable=1;resizable=1;rotatable=1;deletable=1;editable=1;locked=0;connectable=1;fontSize=8;" edge="1" parent="3GjjzttWvD9gjzTAAPP_-381">
          <mxGeometry width="50" height="50" relative="1" as="geometry">
            <mxPoint x="520" y="39" as="sourcePoint" />
            <mxPoint x="680" y="39" as="targetPoint" />
          </mxGeometry>
        </mxCell>
        <mxCell id="3GjjzttWvD9gjzTAAPP_-428" value="64" style="edgeLabel;html=1;align=center;verticalAlign=middle;resizable=1;points=[];movable=1;rotatable=1;deletable=1;editable=1;locked=0;connectable=1;fontSize=8;" connectable="0" vertex="1" parent="3GjjzttWvD9gjzTAAPP_-427">
          <mxGeometry x="-0.0062" y="2" relative="1" as="geometry">
            <mxPoint y="2" as="offset" />
          </mxGeometry>
        </mxCell>
        <mxCell id="3GjjzttWvD9gjzTAAPP_-429" value="Q_2" style="text;html=1;strokeColor=none;fillColor=none;align=center;verticalAlign=middle;whiteSpace=wrap;rounded=0;movable=1;resizable=1;rotatable=1;deletable=1;editable=1;locked=0;connectable=1;fontSize=8;" vertex="1" parent="3GjjzttWvD9gjzTAAPP_-381">
          <mxGeometry x="570" width="60" height="30" as="geometry" />
        </mxCell>
        <mxCell id="3GjjzttWvD9gjzTAAPP_-430" value="Input_Column_2" style="text;html=1;strokeColor=none;fillColor=none;align=center;verticalAlign=middle;whiteSpace=wrap;rounded=0;movable=1;resizable=1;rotatable=1;deletable=1;editable=1;locked=0;connectable=1;fontSize=8;" vertex="1" parent="3GjjzttWvD9gjzTAAPP_-381">
          <mxGeometry x="50" width="100" height="30" as="geometry" />
        </mxCell>
        <mxCell id="3GjjzttWvD9gjzTAAPP_-431" value="W_Q_Row_2" style="text;html=1;strokeColor=none;fillColor=none;align=center;verticalAlign=middle;whiteSpace=wrap;rounded=0;movable=1;resizable=1;rotatable=1;deletable=1;editable=1;locked=0;connectable=1;fontSize=8;" vertex="1" parent="3GjjzttWvD9gjzTAAPP_-381">
          <mxGeometry x="270" y="59" width="100" height="30" as="geometry" />
        </mxCell>
        <mxCell id="3GjjzttWvD9gjzTAAPP_-507" value="" style="endArrow=classic;startArrow=classic;html=1;rounded=0;" edge="1" parent="3GjjzttWvD9gjzTAAPP_-381">
          <mxGeometry width="50" height="50" relative="1" as="geometry">
            <mxPoint x="80" y="41" as="sourcePoint" />
            <mxPoint x="120" y="41" as="targetPoint" />
          </mxGeometry>
        </mxCell>
        <mxCell id="3GjjzttWvD9gjzTAAPP_-508" value="1" style="edgeLabel;html=1;align=center;verticalAlign=middle;resizable=0;points=[];" connectable="0" vertex="1" parent="3GjjzttWvD9gjzTAAPP_-507">
          <mxGeometry x="0.0913" y="3" relative="1" as="geometry">
            <mxPoint x="-2" y="2" as="offset" />
          </mxGeometry>
        </mxCell>
        <mxCell id="3GjjzttWvD9gjzTAAPP_-513" value="" style="endArrow=classic;startArrow=classic;html=1;rounded=0;movable=1;resizable=1;rotatable=1;deletable=1;editable=1;locked=0;connectable=1;fontSize=8;" edge="1" parent="3GjjzttWvD9gjzTAAPP_-381">
          <mxGeometry width="50" height="50" relative="1" as="geometry">
            <mxPoint x="230" y="150" as="sourcePoint" />
            <mxPoint x="230" y="108" as="targetPoint" />
          </mxGeometry>
        </mxCell>
        <mxCell id="3GjjzttWvD9gjzTAAPP_-514" value="1" style="edgeLabel;html=1;align=center;verticalAlign=middle;resizable=1;points=[];movable=1;rotatable=1;deletable=1;editable=1;locked=0;connectable=1;fontSize=8;" connectable="0" vertex="1" parent="3GjjzttWvD9gjzTAAPP_-513">
          <mxGeometry x="-0.0022" y="1" relative="1" as="geometry">
            <mxPoint as="offset" />
          </mxGeometry>
        </mxCell>
        <mxCell id="3GjjzttWvD9gjzTAAPP_-433" value="" style="endArrow=none;dashed=1;html=1;dashPattern=1 3;strokeWidth=2;rounded=0;fontSize=8;" edge="1" parent="1">
          <mxGeometry width="50" height="50" relative="1" as="geometry">
            <mxPoint x="600" y="1383" as="sourcePoint" />
            <mxPoint x="600" y="1293" as="targetPoint" />
          </mxGeometry>
        </mxCell>
        <mxCell id="3GjjzttWvD9gjzTAAPP_-434" value="" style="group;movable=1;resizable=1;rotatable=1;deletable=1;editable=1;locked=0;connectable=1;fontSize=8;" connectable="0" vertex="1" parent="1">
          <mxGeometry y="1389" width="680" height="210" as="geometry" />
        </mxCell>
        <mxCell id="3GjjzttWvD9gjzTAAPP_-435" value="" style="shape=table;startSize=0;container=1;collapsible=0;childLayout=tableLayout;fillColor=#fff2cc;strokeColor=#d6b656;movable=1;resizable=1;rotatable=1;deletable=1;editable=1;locked=0;connectable=1;fontSize=8;" vertex="1" parent="3GjjzttWvD9gjzTAAPP_-434">
          <mxGeometry x="80" y="49" width="40" height="160" as="geometry" />
        </mxCell>
        <mxCell id="3GjjzttWvD9gjzTAAPP_-436" value="" style="shape=tableRow;horizontal=0;startSize=0;swimlaneHead=0;swimlaneBody=0;strokeColor=inherit;top=0;left=0;bottom=0;right=0;collapsible=0;dropTarget=0;fillColor=none;points=[[0,0.5],[1,0.5]];portConstraint=eastwest;movable=1;resizable=1;rotatable=1;deletable=1;editable=1;locked=0;connectable=1;fontSize=8;" vertex="1" parent="3GjjzttWvD9gjzTAAPP_-435">
          <mxGeometry width="40" height="40" as="geometry" />
        </mxCell>
        <mxCell id="3GjjzttWvD9gjzTAAPP_-437" value="I(1,512)" style="shape=partialRectangle;html=1;whiteSpace=wrap;connectable=1;strokeColor=inherit;overflow=hidden;fillColor=none;top=0;left=0;bottom=0;right=0;pointerEvents=1;movable=1;resizable=1;rotatable=1;deletable=1;editable=1;locked=0;fontSize=8;" vertex="1" parent="3GjjzttWvD9gjzTAAPP_-436">
          <mxGeometry width="40" height="40" as="geometry">
            <mxRectangle width="40" height="40" as="alternateBounds" />
          </mxGeometry>
        </mxCell>
        <mxCell id="3GjjzttWvD9gjzTAAPP_-438" value="" style="shape=tableRow;horizontal=0;startSize=0;swimlaneHead=0;swimlaneBody=0;strokeColor=inherit;top=0;left=0;bottom=0;right=0;collapsible=0;dropTarget=0;fillColor=none;points=[[0,0.5],[1,0.5]];portConstraint=eastwest;movable=1;resizable=1;rotatable=1;deletable=1;editable=1;locked=0;connectable=1;fontSize=8;" vertex="1" parent="3GjjzttWvD9gjzTAAPP_-435">
          <mxGeometry y="40" width="40" height="40" as="geometry" />
        </mxCell>
        <mxCell id="3GjjzttWvD9gjzTAAPP_-439" value="I(2,512)" style="shape=partialRectangle;html=1;whiteSpace=wrap;connectable=1;strokeColor=inherit;overflow=hidden;fillColor=none;top=0;left=0;bottom=0;right=0;pointerEvents=1;movable=1;resizable=1;rotatable=1;deletable=1;editable=1;locked=0;fontSize=8;" vertex="1" parent="3GjjzttWvD9gjzTAAPP_-438">
          <mxGeometry width="40" height="40" as="geometry">
            <mxRectangle width="40" height="40" as="alternateBounds" />
          </mxGeometry>
        </mxCell>
        <mxCell id="3GjjzttWvD9gjzTAAPP_-440" value="" style="shape=tableRow;horizontal=0;startSize=0;swimlaneHead=0;swimlaneBody=0;strokeColor=inherit;top=0;left=0;bottom=0;right=0;collapsible=0;dropTarget=0;fillColor=none;points=[[0,0.5],[1,0.5]];portConstraint=eastwest;movable=1;resizable=1;rotatable=1;deletable=1;editable=1;locked=0;connectable=1;fontSize=8;" vertex="1" parent="3GjjzttWvD9gjzTAAPP_-435">
          <mxGeometry y="80" width="40" height="40" as="geometry" />
        </mxCell>
        <mxCell id="3GjjzttWvD9gjzTAAPP_-441" value="I(3,512)" style="shape=partialRectangle;html=1;whiteSpace=wrap;connectable=1;strokeColor=inherit;overflow=hidden;fillColor=none;top=0;left=0;bottom=0;right=0;pointerEvents=1;movable=1;resizable=1;rotatable=1;deletable=1;editable=1;locked=0;fontSize=8;" vertex="1" parent="3GjjzttWvD9gjzTAAPP_-440">
          <mxGeometry width="40" height="40" as="geometry">
            <mxRectangle width="40" height="40" as="alternateBounds" />
          </mxGeometry>
        </mxCell>
        <mxCell id="3GjjzttWvD9gjzTAAPP_-442" value="" style="shape=tableRow;horizontal=0;startSize=0;swimlaneHead=0;swimlaneBody=0;strokeColor=inherit;top=0;left=0;bottom=0;right=0;collapsible=0;dropTarget=0;fillColor=none;points=[[0,0.5],[1,0.5]];portConstraint=eastwest;movable=1;resizable=1;rotatable=1;deletable=1;editable=1;locked=0;connectable=1;fontSize=8;" vertex="1" parent="3GjjzttWvD9gjzTAAPP_-435">
          <mxGeometry y="120" width="40" height="40" as="geometry" />
        </mxCell>
        <mxCell id="3GjjzttWvD9gjzTAAPP_-443" value="I(L,512)" style="shape=partialRectangle;html=1;whiteSpace=wrap;connectable=1;strokeColor=inherit;overflow=hidden;fillColor=none;top=0;left=0;bottom=0;right=0;pointerEvents=1;movable=1;resizable=1;rotatable=1;deletable=1;editable=1;locked=0;fontSize=8;" vertex="1" parent="3GjjzttWvD9gjzTAAPP_-442">
          <mxGeometry width="40" height="40" as="geometry">
            <mxRectangle width="40" height="40" as="alternateBounds" />
          </mxGeometry>
        </mxCell>
        <mxCell id="3GjjzttWvD9gjzTAAPP_-444" value="" style="shape=table;startSize=0;container=1;collapsible=0;childLayout=tableLayout;fillColor=#fff2cc;strokeColor=#d6b656;movable=1;resizable=1;rotatable=1;deletable=1;editable=1;locked=0;connectable=1;fontSize=8;" vertex="1" parent="3GjjzttWvD9gjzTAAPP_-434">
          <mxGeometry x="240" y="109" width="160" height="40" as="geometry" />
        </mxCell>
        <mxCell id="3GjjzttWvD9gjzTAAPP_-445" value="" style="shape=tableRow;horizontal=0;startSize=0;swimlaneHead=0;swimlaneBody=0;strokeColor=inherit;top=0;left=0;bottom=0;right=0;collapsible=0;dropTarget=0;fillColor=none;points=[[0,0.5],[1,0.5]];portConstraint=eastwest;movable=1;resizable=1;rotatable=1;deletable=1;editable=1;locked=0;connectable=1;fontSize=8;" vertex="1" parent="3GjjzttWvD9gjzTAAPP_-444">
          <mxGeometry width="160" height="40" as="geometry" />
        </mxCell>
        <mxCell id="3GjjzttWvD9gjzTAAPP_-446" value="" style="shape=partialRectangle;html=1;whiteSpace=wrap;connectable=1;strokeColor=inherit;overflow=hidden;fillColor=none;top=0;left=0;bottom=0;right=0;pointerEvents=1;movable=1;resizable=1;rotatable=1;deletable=1;editable=1;locked=0;fontSize=8;" vertex="1" parent="3GjjzttWvD9gjzTAAPP_-445">
          <mxGeometry width="40" height="40" as="geometry">
            <mxRectangle width="40" height="40" as="alternateBounds" />
          </mxGeometry>
        </mxCell>
        <mxCell id="3GjjzttWvD9gjzTAAPP_-447" value="" style="shape=partialRectangle;html=1;whiteSpace=wrap;connectable=1;strokeColor=inherit;overflow=hidden;fillColor=none;top=0;left=0;bottom=0;right=0;pointerEvents=1;movable=1;resizable=1;rotatable=1;deletable=1;editable=1;locked=0;fontSize=8;" vertex="1" parent="3GjjzttWvD9gjzTAAPP_-445">
          <mxGeometry x="40" width="40" height="40" as="geometry">
            <mxRectangle width="40" height="40" as="alternateBounds" />
          </mxGeometry>
        </mxCell>
        <mxCell id="3GjjzttWvD9gjzTAAPP_-448" value="" style="shape=partialRectangle;html=1;whiteSpace=wrap;connectable=1;strokeColor=inherit;overflow=hidden;fillColor=none;top=0;left=0;bottom=0;right=0;pointerEvents=1;movable=1;resizable=1;rotatable=1;deletable=1;editable=1;locked=0;fontSize=8;" vertex="1" parent="3GjjzttWvD9gjzTAAPP_-445">
          <mxGeometry x="80" width="40" height="40" as="geometry">
            <mxRectangle width="40" height="40" as="alternateBounds" />
          </mxGeometry>
        </mxCell>
        <mxCell id="3GjjzttWvD9gjzTAAPP_-449" value="" style="shape=partialRectangle;html=1;whiteSpace=wrap;connectable=1;strokeColor=inherit;overflow=hidden;fillColor=none;top=0;left=0;bottom=0;right=0;pointerEvents=1;movable=1;resizable=1;rotatable=1;deletable=1;editable=1;locked=0;fontSize=8;" vertex="1" parent="3GjjzttWvD9gjzTAAPP_-445">
          <mxGeometry x="120" width="40" height="40" as="geometry">
            <mxRectangle width="40" height="40" as="alternateBounds" />
          </mxGeometry>
        </mxCell>
        <mxCell id="3GjjzttWvD9gjzTAAPP_-450" value="" style="shape=table;startSize=0;container=1;collapsible=0;childLayout=tableLayout;fillColor=#dae8fc;strokeColor=#6c8ebf;movable=1;resizable=1;rotatable=1;deletable=1;editable=1;locked=0;connectable=1;fontSize=8;" vertex="1" parent="3GjjzttWvD9gjzTAAPP_-434">
          <mxGeometry x="520" y="49" width="160" height="160" as="geometry" />
        </mxCell>
        <mxCell id="3GjjzttWvD9gjzTAAPP_-451" value="" style="shape=tableRow;horizontal=0;startSize=0;swimlaneHead=0;swimlaneBody=0;strokeColor=inherit;top=0;left=0;bottom=0;right=0;collapsible=0;dropTarget=0;fillColor=none;points=[[0,0.5],[1,0.5]];portConstraint=eastwest;movable=1;resizable=1;rotatable=1;deletable=1;editable=1;locked=0;connectable=1;fontSize=8;" vertex="1" parent="3GjjzttWvD9gjzTAAPP_-450">
          <mxGeometry width="160" height="40" as="geometry" />
        </mxCell>
        <mxCell id="3GjjzttWvD9gjzTAAPP_-452" value="" style="shape=partialRectangle;html=1;whiteSpace=wrap;connectable=1;strokeColor=inherit;overflow=hidden;fillColor=none;top=0;left=0;bottom=0;right=0;pointerEvents=1;movable=1;resizable=1;rotatable=1;deletable=1;editable=1;locked=0;fontSize=8;" vertex="1" parent="3GjjzttWvD9gjzTAAPP_-451">
          <mxGeometry width="40" height="40" as="geometry">
            <mxRectangle width="40" height="40" as="alternateBounds" />
          </mxGeometry>
        </mxCell>
        <mxCell id="3GjjzttWvD9gjzTAAPP_-453" value="" style="shape=partialRectangle;html=1;whiteSpace=wrap;connectable=1;strokeColor=inherit;overflow=hidden;fillColor=none;top=0;left=0;bottom=0;right=0;pointerEvents=1;movable=1;resizable=1;rotatable=1;deletable=1;editable=1;locked=0;fontSize=8;" vertex="1" parent="3GjjzttWvD9gjzTAAPP_-451">
          <mxGeometry x="40" width="40" height="40" as="geometry">
            <mxRectangle width="40" height="40" as="alternateBounds" />
          </mxGeometry>
        </mxCell>
        <mxCell id="3GjjzttWvD9gjzTAAPP_-454" value="" style="shape=partialRectangle;html=1;whiteSpace=wrap;connectable=1;strokeColor=inherit;overflow=hidden;fillColor=none;top=0;left=0;bottom=0;right=0;pointerEvents=1;movable=1;resizable=1;rotatable=1;deletable=1;editable=1;locked=0;fontSize=8;" vertex="1" parent="3GjjzttWvD9gjzTAAPP_-451">
          <mxGeometry x="80" width="40" height="40" as="geometry">
            <mxRectangle width="40" height="40" as="alternateBounds" />
          </mxGeometry>
        </mxCell>
        <mxCell id="3GjjzttWvD9gjzTAAPP_-455" value="" style="shape=partialRectangle;html=1;whiteSpace=wrap;connectable=1;strokeColor=inherit;overflow=hidden;fillColor=none;top=0;left=0;bottom=0;right=0;pointerEvents=1;movable=1;resizable=1;rotatable=1;deletable=1;editable=1;locked=0;fontSize=8;" vertex="1" parent="3GjjzttWvD9gjzTAAPP_-451">
          <mxGeometry x="120" width="40" height="40" as="geometry">
            <mxRectangle width="40" height="40" as="alternateBounds" />
          </mxGeometry>
        </mxCell>
        <mxCell id="3GjjzttWvD9gjzTAAPP_-456" value="" style="shape=tableRow;horizontal=0;startSize=0;swimlaneHead=0;swimlaneBody=0;strokeColor=inherit;top=0;left=0;bottom=0;right=0;collapsible=0;dropTarget=0;fillColor=none;points=[[0,0.5],[1,0.5]];portConstraint=eastwest;movable=1;resizable=1;rotatable=1;deletable=1;editable=1;locked=0;connectable=1;fontSize=8;" vertex="1" parent="3GjjzttWvD9gjzTAAPP_-450">
          <mxGeometry y="40" width="160" height="40" as="geometry" />
        </mxCell>
        <mxCell id="3GjjzttWvD9gjzTAAPP_-457" value="" style="shape=partialRectangle;html=1;whiteSpace=wrap;connectable=1;strokeColor=inherit;overflow=hidden;fillColor=none;top=0;left=0;bottom=0;right=0;pointerEvents=1;movable=1;resizable=1;rotatable=1;deletable=1;editable=1;locked=0;fontSize=8;" vertex="1" parent="3GjjzttWvD9gjzTAAPP_-456">
          <mxGeometry width="40" height="40" as="geometry">
            <mxRectangle width="40" height="40" as="alternateBounds" />
          </mxGeometry>
        </mxCell>
        <mxCell id="3GjjzttWvD9gjzTAAPP_-458" value="" style="shape=partialRectangle;html=1;whiteSpace=wrap;connectable=1;strokeColor=inherit;overflow=hidden;fillColor=none;top=0;left=0;bottom=0;right=0;pointerEvents=1;movable=1;resizable=1;rotatable=1;deletable=1;editable=1;locked=0;fontSize=8;" vertex="1" parent="3GjjzttWvD9gjzTAAPP_-456">
          <mxGeometry x="40" width="40" height="40" as="geometry">
            <mxRectangle width="40" height="40" as="alternateBounds" />
          </mxGeometry>
        </mxCell>
        <mxCell id="3GjjzttWvD9gjzTAAPP_-459" value="" style="shape=partialRectangle;html=1;whiteSpace=wrap;connectable=1;strokeColor=inherit;overflow=hidden;fillColor=none;top=0;left=0;bottom=0;right=0;pointerEvents=1;movable=1;resizable=1;rotatable=1;deletable=1;editable=1;locked=0;fontSize=8;" vertex="1" parent="3GjjzttWvD9gjzTAAPP_-456">
          <mxGeometry x="80" width="40" height="40" as="geometry">
            <mxRectangle width="40" height="40" as="alternateBounds" />
          </mxGeometry>
        </mxCell>
        <mxCell id="3GjjzttWvD9gjzTAAPP_-460" value="" style="shape=partialRectangle;html=1;whiteSpace=wrap;connectable=1;strokeColor=inherit;overflow=hidden;fillColor=none;top=0;left=0;bottom=0;right=0;pointerEvents=1;movable=1;resizable=1;rotatable=1;deletable=1;editable=1;locked=0;fontSize=8;" vertex="1" parent="3GjjzttWvD9gjzTAAPP_-456">
          <mxGeometry x="120" width="40" height="40" as="geometry">
            <mxRectangle width="40" height="40" as="alternateBounds" />
          </mxGeometry>
        </mxCell>
        <mxCell id="3GjjzttWvD9gjzTAAPP_-461" value="" style="shape=tableRow;horizontal=0;startSize=0;swimlaneHead=0;swimlaneBody=0;strokeColor=inherit;top=0;left=0;bottom=0;right=0;collapsible=0;dropTarget=0;fillColor=none;points=[[0,0.5],[1,0.5]];portConstraint=eastwest;movable=1;resizable=1;rotatable=1;deletable=1;editable=1;locked=0;connectable=1;fontSize=8;" vertex="1" parent="3GjjzttWvD9gjzTAAPP_-450">
          <mxGeometry y="80" width="160" height="40" as="geometry" />
        </mxCell>
        <mxCell id="3GjjzttWvD9gjzTAAPP_-462" value="" style="shape=partialRectangle;html=1;whiteSpace=wrap;connectable=1;strokeColor=inherit;overflow=hidden;fillColor=none;top=0;left=0;bottom=0;right=0;pointerEvents=1;movable=1;resizable=1;rotatable=1;deletable=1;editable=1;locked=0;fontSize=8;" vertex="1" parent="3GjjzttWvD9gjzTAAPP_-461">
          <mxGeometry width="40" height="40" as="geometry">
            <mxRectangle width="40" height="40" as="alternateBounds" />
          </mxGeometry>
        </mxCell>
        <mxCell id="3GjjzttWvD9gjzTAAPP_-463" value="" style="shape=partialRectangle;html=1;whiteSpace=wrap;connectable=1;strokeColor=inherit;overflow=hidden;fillColor=none;top=0;left=0;bottom=0;right=0;pointerEvents=1;movable=1;resizable=1;rotatable=1;deletable=1;editable=1;locked=0;fontSize=8;" vertex="1" parent="3GjjzttWvD9gjzTAAPP_-461">
          <mxGeometry x="40" width="40" height="40" as="geometry">
            <mxRectangle width="40" height="40" as="alternateBounds" />
          </mxGeometry>
        </mxCell>
        <mxCell id="3GjjzttWvD9gjzTAAPP_-464" value="" style="shape=partialRectangle;html=1;whiteSpace=wrap;connectable=1;strokeColor=inherit;overflow=hidden;fillColor=none;top=0;left=0;bottom=0;right=0;pointerEvents=1;movable=1;resizable=1;rotatable=1;deletable=1;editable=1;locked=0;fontSize=8;" vertex="1" parent="3GjjzttWvD9gjzTAAPP_-461">
          <mxGeometry x="80" width="40" height="40" as="geometry">
            <mxRectangle width="40" height="40" as="alternateBounds" />
          </mxGeometry>
        </mxCell>
        <mxCell id="3GjjzttWvD9gjzTAAPP_-465" value="" style="shape=partialRectangle;html=1;whiteSpace=wrap;connectable=1;strokeColor=inherit;overflow=hidden;fillColor=none;top=0;left=0;bottom=0;right=0;pointerEvents=1;movable=1;resizable=1;rotatable=1;deletable=1;editable=1;locked=0;fontSize=8;" vertex="1" parent="3GjjzttWvD9gjzTAAPP_-461">
          <mxGeometry x="120" width="40" height="40" as="geometry">
            <mxRectangle width="40" height="40" as="alternateBounds" />
          </mxGeometry>
        </mxCell>
        <mxCell id="3GjjzttWvD9gjzTAAPP_-466" value="" style="shape=tableRow;horizontal=0;startSize=0;swimlaneHead=0;swimlaneBody=0;strokeColor=inherit;top=0;left=0;bottom=0;right=0;collapsible=0;dropTarget=0;fillColor=none;points=[[0,0.5],[1,0.5]];portConstraint=eastwest;movable=1;resizable=1;rotatable=1;deletable=1;editable=1;locked=0;connectable=1;fontSize=8;" vertex="1" parent="3GjjzttWvD9gjzTAAPP_-450">
          <mxGeometry y="120" width="160" height="40" as="geometry" />
        </mxCell>
        <mxCell id="3GjjzttWvD9gjzTAAPP_-467" value="" style="shape=partialRectangle;html=1;whiteSpace=wrap;connectable=1;strokeColor=inherit;overflow=hidden;fillColor=none;top=0;left=0;bottom=0;right=0;pointerEvents=1;movable=1;resizable=1;rotatable=1;deletable=1;editable=1;locked=0;fontSize=8;" vertex="1" parent="3GjjzttWvD9gjzTAAPP_-466">
          <mxGeometry width="40" height="40" as="geometry">
            <mxRectangle width="40" height="40" as="alternateBounds" />
          </mxGeometry>
        </mxCell>
        <mxCell id="3GjjzttWvD9gjzTAAPP_-468" value="" style="shape=partialRectangle;html=1;whiteSpace=wrap;connectable=1;strokeColor=inherit;overflow=hidden;fillColor=none;top=0;left=0;bottom=0;right=0;pointerEvents=1;movable=1;resizable=1;rotatable=1;deletable=1;editable=1;locked=0;fontSize=8;" vertex="1" parent="3GjjzttWvD9gjzTAAPP_-466">
          <mxGeometry x="40" width="40" height="40" as="geometry">
            <mxRectangle width="40" height="40" as="alternateBounds" />
          </mxGeometry>
        </mxCell>
        <mxCell id="3GjjzttWvD9gjzTAAPP_-469" value="" style="shape=partialRectangle;html=1;whiteSpace=wrap;connectable=1;strokeColor=inherit;overflow=hidden;fillColor=none;top=0;left=0;bottom=0;right=0;pointerEvents=1;movable=1;resizable=1;rotatable=1;deletable=1;editable=1;locked=0;fontSize=8;" vertex="1" parent="3GjjzttWvD9gjzTAAPP_-466">
          <mxGeometry x="80" width="40" height="40" as="geometry">
            <mxRectangle width="40" height="40" as="alternateBounds" />
          </mxGeometry>
        </mxCell>
        <mxCell id="3GjjzttWvD9gjzTAAPP_-470" value="" style="shape=partialRectangle;html=1;whiteSpace=wrap;connectable=1;strokeColor=inherit;overflow=hidden;fillColor=none;top=0;left=0;bottom=0;right=0;pointerEvents=1;movable=1;resizable=1;rotatable=1;deletable=1;editable=1;locked=0;fontSize=8;" vertex="1" parent="3GjjzttWvD9gjzTAAPP_-466">
          <mxGeometry x="120" width="40" height="40" as="geometry">
            <mxRectangle width="40" height="40" as="alternateBounds" />
          </mxGeometry>
        </mxCell>
        <mxCell id="3GjjzttWvD9gjzTAAPP_-471" value="" style="shape=cross;whiteSpace=wrap;html=1;rotation=-45;fillColor=#000000;movable=1;resizable=1;rotatable=1;deletable=1;editable=1;locked=0;connectable=1;fontSize=8;" vertex="1" parent="3GjjzttWvD9gjzTAAPP_-434">
          <mxGeometry x="150" y="104" width="50" height="50" as="geometry" />
        </mxCell>
        <mxCell id="3GjjzttWvD9gjzTAAPP_-472" value="" style="shape=image;html=1;verticalAlign=top;verticalLabelPosition=bottom;labelBackgroundColor=#ffffff;imageAspect=0;aspect=fixed;image=https://cdn2.iconfinder.com/data/icons/css-vol-2/24/math-equal-128.png;movable=1;resizable=1;rotatable=1;deletable=1;editable=1;locked=0;connectable=1;fontSize=8;" vertex="1" parent="3GjjzttWvD9gjzTAAPP_-434">
          <mxGeometry x="416" y="84" width="90" height="90" as="geometry" />
        </mxCell>
        <mxCell id="3GjjzttWvD9gjzTAAPP_-473" value="" style="endArrow=classic;startArrow=classic;html=1;rounded=0;movable=1;resizable=1;rotatable=1;deletable=1;editable=1;locked=0;connectable=1;fontSize=8;" edge="1" parent="3GjjzttWvD9gjzTAAPP_-434">
          <mxGeometry width="50" height="50" relative="1" as="geometry">
            <mxPoint x="70" y="209" as="sourcePoint" />
            <mxPoint x="70" y="49" as="targetPoint" />
          </mxGeometry>
        </mxCell>
        <mxCell id="3GjjzttWvD9gjzTAAPP_-474" value="L" style="edgeLabel;html=1;align=center;verticalAlign=middle;resizable=1;points=[];movable=1;rotatable=1;deletable=1;editable=1;locked=0;connectable=1;fontSize=8;" connectable="0" vertex="1" parent="3GjjzttWvD9gjzTAAPP_-473">
          <mxGeometry x="-0.0022" y="1" relative="1" as="geometry">
            <mxPoint as="offset" />
          </mxGeometry>
        </mxCell>
        <mxCell id="3GjjzttWvD9gjzTAAPP_-476" value="" style="endArrow=classic;startArrow=classic;html=1;rounded=0;movable=1;resizable=1;rotatable=1;deletable=1;editable=1;locked=0;connectable=1;fontSize=8;" edge="1" parent="3GjjzttWvD9gjzTAAPP_-434">
          <mxGeometry width="50" height="50" relative="1" as="geometry">
            <mxPoint x="240" y="99" as="sourcePoint" />
            <mxPoint x="400" y="99" as="targetPoint" />
          </mxGeometry>
        </mxCell>
        <mxCell id="3GjjzttWvD9gjzTAAPP_-477" value="64" style="edgeLabel;html=1;align=center;verticalAlign=middle;resizable=1;points=[];movable=1;rotatable=1;deletable=1;editable=1;locked=0;connectable=1;fontSize=8;" connectable="0" vertex="1" parent="3GjjzttWvD9gjzTAAPP_-476">
          <mxGeometry x="-0.0129" y="-1" relative="1" as="geometry">
            <mxPoint as="offset" />
          </mxGeometry>
        </mxCell>
        <mxCell id="3GjjzttWvD9gjzTAAPP_-478" value="" style="endArrow=classic;startArrow=classic;html=1;rounded=0;movable=1;resizable=1;rotatable=1;deletable=1;editable=1;locked=0;connectable=1;fontSize=8;" edge="1" parent="3GjjzttWvD9gjzTAAPP_-434">
          <mxGeometry width="50" height="50" relative="1" as="geometry">
            <mxPoint x="510" y="209" as="sourcePoint" />
            <mxPoint x="510" y="49" as="targetPoint" />
          </mxGeometry>
        </mxCell>
        <mxCell id="3GjjzttWvD9gjzTAAPP_-479" value="L" style="edgeLabel;html=1;align=center;verticalAlign=middle;resizable=1;points=[];movable=1;rotatable=1;deletable=1;editable=1;locked=0;connectable=1;fontSize=8;" connectable="0" vertex="1" parent="3GjjzttWvD9gjzTAAPP_-478">
          <mxGeometry x="-0.0022" y="1" relative="1" as="geometry">
            <mxPoint as="offset" />
          </mxGeometry>
        </mxCell>
        <mxCell id="3GjjzttWvD9gjzTAAPP_-480" value="" style="endArrow=classic;startArrow=classic;html=1;rounded=0;movable=1;resizable=1;rotatable=1;deletable=1;editable=1;locked=0;connectable=1;fontSize=8;" edge="1" parent="3GjjzttWvD9gjzTAAPP_-434">
          <mxGeometry width="50" height="50" relative="1" as="geometry">
            <mxPoint x="520" y="39" as="sourcePoint" />
            <mxPoint x="680" y="39" as="targetPoint" />
          </mxGeometry>
        </mxCell>
        <mxCell id="3GjjzttWvD9gjzTAAPP_-481" value="64" style="edgeLabel;html=1;align=center;verticalAlign=middle;resizable=1;points=[];movable=1;rotatable=1;deletable=1;editable=1;locked=0;connectable=1;fontSize=8;" connectable="0" vertex="1" parent="3GjjzttWvD9gjzTAAPP_-480">
          <mxGeometry x="-0.0062" y="2" relative="1" as="geometry">
            <mxPoint y="2" as="offset" />
          </mxGeometry>
        </mxCell>
        <mxCell id="3GjjzttWvD9gjzTAAPP_-482" value="Q_512" style="text;html=1;strokeColor=none;fillColor=none;align=center;verticalAlign=middle;whiteSpace=wrap;rounded=0;movable=1;resizable=1;rotatable=1;deletable=1;editable=1;locked=0;connectable=1;fontSize=8;" vertex="1" parent="3GjjzttWvD9gjzTAAPP_-434">
          <mxGeometry x="570" width="60" height="30" as="geometry" />
        </mxCell>
        <mxCell id="3GjjzttWvD9gjzTAAPP_-483" value="Input_Column_512" style="text;html=1;strokeColor=none;fillColor=none;align=center;verticalAlign=middle;whiteSpace=wrap;rounded=0;movable=1;resizable=1;rotatable=1;deletable=1;editable=1;locked=0;connectable=1;fontSize=8;" vertex="1" parent="3GjjzttWvD9gjzTAAPP_-434">
          <mxGeometry x="50" width="100" height="30" as="geometry" />
        </mxCell>
        <mxCell id="3GjjzttWvD9gjzTAAPP_-484" value="W_Q_Row_512" style="text;html=1;strokeColor=none;fillColor=none;align=center;verticalAlign=middle;whiteSpace=wrap;rounded=0;movable=1;resizable=1;rotatable=1;deletable=1;editable=1;locked=0;connectable=1;fontSize=8;" vertex="1" parent="3GjjzttWvD9gjzTAAPP_-434">
          <mxGeometry x="270" y="59" width="100" height="30" as="geometry" />
        </mxCell>
        <mxCell id="3GjjzttWvD9gjzTAAPP_-505" value="" style="endArrow=classic;startArrow=classic;html=1;rounded=0;" edge="1" parent="3GjjzttWvD9gjzTAAPP_-434">
          <mxGeometry width="50" height="50" relative="1" as="geometry">
            <mxPoint x="80" y="41" as="sourcePoint" />
            <mxPoint x="120" y="41" as="targetPoint" />
          </mxGeometry>
        </mxCell>
        <mxCell id="3GjjzttWvD9gjzTAAPP_-506" value="1" style="edgeLabel;html=1;align=center;verticalAlign=middle;resizable=0;points=[];" connectable="0" vertex="1" parent="3GjjzttWvD9gjzTAAPP_-505">
          <mxGeometry x="0.0913" y="3" relative="1" as="geometry">
            <mxPoint x="-2" y="2" as="offset" />
          </mxGeometry>
        </mxCell>
        <mxCell id="3GjjzttWvD9gjzTAAPP_-515" value="" style="endArrow=classic;startArrow=classic;html=1;rounded=0;movable=1;resizable=1;rotatable=1;deletable=1;editable=1;locked=0;connectable=1;fontSize=8;" edge="1" parent="3GjjzttWvD9gjzTAAPP_-434">
          <mxGeometry width="50" height="50" relative="1" as="geometry">
            <mxPoint x="230" y="150" as="sourcePoint" />
            <mxPoint x="230" y="108" as="targetPoint" />
          </mxGeometry>
        </mxCell>
        <mxCell id="3GjjzttWvD9gjzTAAPP_-516" value="1" style="edgeLabel;html=1;align=center;verticalAlign=middle;resizable=1;points=[];movable=1;rotatable=1;deletable=1;editable=1;locked=0;connectable=1;fontSize=8;" connectable="0" vertex="1" parent="3GjjzttWvD9gjzTAAPP_-515">
          <mxGeometry x="-0.0022" y="1" relative="1" as="geometry">
            <mxPoint as="offset" />
          </mxGeometry>
        </mxCell>
        <mxCell id="3GjjzttWvD9gjzTAAPP_-497" value="" style="endArrow=none;dashed=1;html=1;dashPattern=1 3;strokeWidth=2;rounded=0;fontSize=8;" edge="1" parent="1">
          <mxGeometry width="50" height="50" relative="1" as="geometry">
            <mxPoint x="320" y="1380" as="sourcePoint" />
            <mxPoint x="320" y="1290" as="targetPoint" />
          </mxGeometry>
        </mxCell>
        <mxCell id="3GjjzttWvD9gjzTAAPP_-498" value="" style="endArrow=none;dashed=1;html=1;dashPattern=1 3;strokeWidth=2;rounded=0;fontSize=8;" edge="1" parent="1">
          <mxGeometry width="50" height="50" relative="1" as="geometry">
            <mxPoint x="100" y="1380" as="sourcePoint" />
            <mxPoint x="100" y="1290" as="targetPoint" />
          </mxGeometry>
        </mxCell>
        <mxCell id="3GjjzttWvD9gjzTAAPP_-499" value="x 512" style="text;html=1;strokeColor=none;fillColor=none;align=center;verticalAlign=middle;whiteSpace=wrap;rounded=0;" vertex="1" parent="1">
          <mxGeometry x="610" y="1320" width="60" height="30" as="geometry" />
        </mxCell>
        <mxCell id="3GjjzttWvD9gjzTAAPP_-500" value="" style="shape=curlyBracket;whiteSpace=wrap;html=1;rounded=1;flipH=1;labelPosition=right;verticalLabelPosition=middle;align=left;verticalAlign=middle;" vertex="1" parent="1">
          <mxGeometry x="710" y="878" width="20" height="402" as="geometry" />
        </mxCell>
        <mxCell id="3GjjzttWvD9gjzTAAPP_-517" value="" style="verticalLabelPosition=bottom;shadow=0;dashed=0;align=center;html=1;verticalAlign=top;shape=mxgraph.electrical.abstract.summation_point;" vertex="1" parent="1">
          <mxGeometry x="750" y="1054" width="50" height="50" as="geometry" />
        </mxCell>
        <mxCell id="3GjjzttWvD9gjzTAAPP_-518" value="" style="shape=curlyBracket;whiteSpace=wrap;html=1;rounded=1;flipH=1;labelPosition=right;verticalLabelPosition=middle;align=left;verticalAlign=middle;" vertex="1" parent="1">
          <mxGeometry x="820" y="1080" width="20" height="240" as="geometry" />
        </mxCell>
        <mxCell id="3GjjzttWvD9gjzTAAPP_-519" value="" style="verticalLabelPosition=bottom;shadow=0;dashed=0;align=center;html=1;verticalAlign=top;shape=mxgraph.electrical.abstract.summation_point;" vertex="1" parent="1">
          <mxGeometry x="855" y="1175" width="50" height="50" as="geometry" />
        </mxCell>
        <mxCell id="3GjjzttWvD9gjzTAAPP_-520" value="" style="shape=curlyBracket;whiteSpace=wrap;html=1;rounded=1;flipH=1;labelPosition=right;verticalLabelPosition=middle;align=left;verticalAlign=middle;" vertex="1" parent="1">
          <mxGeometry x="920" y="1200" width="20" height="160" as="geometry" />
        </mxCell>
        <mxCell id="3GjjzttWvD9gjzTAAPP_-521" value="" style="verticalLabelPosition=bottom;shadow=0;dashed=0;align=center;html=1;verticalAlign=top;shape=mxgraph.electrical.abstract.summation_point;" vertex="1" parent="1">
          <mxGeometry x="960" y="1255" width="50" height="50" as="geometry" />
        </mxCell>
        <mxCell id="3GjjzttWvD9gjzTAAPP_-522" value="" style="shape=curlyBracket;whiteSpace=wrap;html=1;rounded=1;flipH=1;labelPosition=right;verticalLabelPosition=middle;align=left;verticalAlign=middle;" vertex="1" parent="1">
          <mxGeometry x="1060" y="1400" width="20" height="200" as="geometry" />
        </mxCell>
        <mxCell id="3GjjzttWvD9gjzTAAPP_-523" value="" style="endArrow=none;dashed=1;html=1;dashPattern=1 3;strokeWidth=2;rounded=0;fontSize=8;" edge="1" parent="1">
          <mxGeometry width="50" height="50" relative="1" as="geometry">
            <mxPoint x="1014.0625" y="1362.5" as="sourcePoint" />
            <mxPoint x="990" y="1307.5" as="targetPoint" />
          </mxGeometry>
        </mxCell>
        <mxCell id="3GjjzttWvD9gjzTAAPP_-524" value="" style="verticalLabelPosition=bottom;shadow=0;dashed=0;align=center;html=1;verticalAlign=top;shape=mxgraph.electrical.abstract.summation_point;" vertex="1" parent="1">
          <mxGeometry x="1100" y="1475" width="50" height="50" as="geometry" />
        </mxCell>
        <mxCell id="3GjjzttWvD9gjzTAAPP_-525" value="&lt;개선한 점&gt;&#xa;1. 곱셈과 덧셈연산에서 clk 비슷하게 맞추기&#xa;2. Input 행렬을 column 기준으로 잘라서  1cycle 연산이 끝났을 때 Q행렬의 모든 요소에 값이 하나씩 채워지게 하기&#xa;3. Q 행렬 요소에 adress를 부여하여 연산값이 주소를 보고 찾아갈 수 있게 하여 메모리 부담 줄이기&#xa;4. 덧셈은 한 번 더하는 구조에서 끝나게 설계&#xa;5. Input 행렬 불러오는 방식도 고안하기" style="text;whiteSpace=wrap;fontSize=18;" vertex="1" parent="1">
          <mxGeometry x="40" y="475" width="930" height="180" as="geometry" />
        </mxCell>
        <mxCell id="3GjjzttWvD9gjzTAAPP_-542" style="edgeStyle=orthogonalEdgeStyle;rounded=0;orthogonalLoop=1;jettySize=auto;html=1;exitX=1;exitY=0.25;exitDx=0;exitDy=0;entryX=-0.005;entryY=0.127;entryDx=0;entryDy=0;entryPerimeter=0;" edge="1" parent="1" source="3GjjzttWvD9gjzTAAPP_-526" target="3GjjzttWvD9gjzTAAPP_-534">
          <mxGeometry relative="1" as="geometry">
            <Array as="points">
              <mxPoint x="1400" y="100" />
              <mxPoint x="1440" y="100" />
            </Array>
          </mxGeometry>
        </mxCell>
        <mxCell id="3GjjzttWvD9gjzTAAPP_-544" style="edgeStyle=orthogonalEdgeStyle;rounded=0;orthogonalLoop=1;jettySize=auto;html=1;exitX=1;exitY=0.5;exitDx=0;exitDy=0;" edge="1" parent="1" source="3GjjzttWvD9gjzTAAPP_-526" target="3GjjzttWvD9gjzTAAPP_-535">
          <mxGeometry relative="1" as="geometry">
            <Array as="points">
              <mxPoint x="1400" y="140" />
            </Array>
          </mxGeometry>
        </mxCell>
        <mxCell id="3GjjzttWvD9gjzTAAPP_-545" style="edgeStyle=orthogonalEdgeStyle;rounded=0;orthogonalLoop=1;jettySize=auto;html=1;exitX=1;exitY=0.75;exitDx=0;exitDy=0;" edge="1" parent="1" source="3GjjzttWvD9gjzTAAPP_-526" target="3GjjzttWvD9gjzTAAPP_-536">
          <mxGeometry relative="1" as="geometry">
            <mxPoint x="1410" y="160" as="sourcePoint" />
            <mxPoint x="1570" y="200" as="targetPoint" />
            <Array as="points">
              <mxPoint x="1400" y="180" />
            </Array>
          </mxGeometry>
        </mxCell>
        <mxCell id="3GjjzttWvD9gjzTAAPP_-546" style="edgeStyle=orthogonalEdgeStyle;rounded=0;orthogonalLoop=1;jettySize=auto;html=1;exitX=1;exitY=1;exitDx=0;exitDy=0;entryX=0.021;entryY=0.129;entryDx=0;entryDy=0;entryPerimeter=0;" edge="1" parent="1" source="3GjjzttWvD9gjzTAAPP_-526" target="3GjjzttWvD9gjzTAAPP_-541">
          <mxGeometry relative="1" as="geometry">
            <Array as="points">
              <mxPoint x="1400" y="220" />
              <mxPoint x="1621" y="220" />
            </Array>
          </mxGeometry>
        </mxCell>
        <mxCell id="3GjjzttWvD9gjzTAAPP_-526" value="Input&lt;br&gt;(Lx512)" style="whiteSpace=wrap;html=1;aspect=fixed;" vertex="1" parent="1">
          <mxGeometry x="1240" y="80" width="160" height="160" as="geometry" />
        </mxCell>
        <mxCell id="3GjjzttWvD9gjzTAAPP_-549" style="edgeStyle=orthogonalEdgeStyle;rounded=0;orthogonalLoop=1;jettySize=auto;html=1;exitX=1;exitY=0.25;exitDx=0;exitDy=0;entryX=0;entryY=0.5;entryDx=0;entryDy=0;" edge="1" parent="1" source="3GjjzttWvD9gjzTAAPP_-528" target="3GjjzttWvD9gjzTAAPP_-537">
          <mxGeometry relative="1" as="geometry">
            <Array as="points">
              <mxPoint x="1400" y="420" />
            </Array>
          </mxGeometry>
        </mxCell>
        <mxCell id="3GjjzttWvD9gjzTAAPP_-550" style="edgeStyle=orthogonalEdgeStyle;rounded=0;orthogonalLoop=1;jettySize=auto;html=1;exitX=1;exitY=0.5;exitDx=0;exitDy=0;entryX=0;entryY=0.5;entryDx=0;entryDy=0;" edge="1" parent="1" source="3GjjzttWvD9gjzTAAPP_-528" target="3GjjzttWvD9gjzTAAPP_-538">
          <mxGeometry relative="1" as="geometry">
            <Array as="points">
              <mxPoint x="1400" y="460" />
            </Array>
          </mxGeometry>
        </mxCell>
        <mxCell id="3GjjzttWvD9gjzTAAPP_-551" style="edgeStyle=orthogonalEdgeStyle;rounded=0;orthogonalLoop=1;jettySize=auto;html=1;exitX=1;exitY=0.75;exitDx=0;exitDy=0;entryX=0;entryY=0.5;entryDx=0;entryDy=0;" edge="1" parent="1" source="3GjjzttWvD9gjzTAAPP_-528" target="3GjjzttWvD9gjzTAAPP_-539">
          <mxGeometry relative="1" as="geometry">
            <Array as="points">
              <mxPoint x="1400" y="500" />
            </Array>
          </mxGeometry>
        </mxCell>
        <mxCell id="3GjjzttWvD9gjzTAAPP_-552" style="edgeStyle=orthogonalEdgeStyle;rounded=0;orthogonalLoop=1;jettySize=auto;html=1;exitX=1;exitY=1;exitDx=0;exitDy=0;entryX=0;entryY=0.5;entryDx=0;entryDy=0;" edge="1" parent="1" source="3GjjzttWvD9gjzTAAPP_-528" target="3GjjzttWvD9gjzTAAPP_-540">
          <mxGeometry relative="1" as="geometry">
            <Array as="points">
              <mxPoint x="1400" y="540" />
            </Array>
          </mxGeometry>
        </mxCell>
        <mxCell id="3GjjzttWvD9gjzTAAPP_-528" value="W_Q&lt;br&gt;(512x64)" style="whiteSpace=wrap;html=1;aspect=fixed;" vertex="1" parent="1">
          <mxGeometry x="1240" y="400" width="160" height="160" as="geometry" />
        </mxCell>
        <mxCell id="3GjjzttWvD9gjzTAAPP_-529" value="Q&lt;br&gt;(Lx64)" style="whiteSpace=wrap;html=1;aspect=fixed;" vertex="1" parent="1">
          <mxGeometry x="2020" y="80" width="160" height="160" as="geometry" />
        </mxCell>
        <mxCell id="3GjjzttWvD9gjzTAAPP_-532" value="L(Sentence Length)&#xa;Min_L = 2&#xa;Max_L = 256&#xa;D_model = 512&#xa;N_heads = 8&#xa;D_model/n_heads = 64" style="text;whiteSpace=wrap;" vertex="1" parent="1">
          <mxGeometry x="800" y="280" width="170" height="105" as="geometry" />
        </mxCell>
        <mxCell id="3GjjzttWvD9gjzTAAPP_-534" value="Column Wise" style="rounded=0;whiteSpace=wrap;html=1;" vertex="1" parent="1">
          <mxGeometry x="1440" y="80" width="40" height="160" as="geometry" />
        </mxCell>
        <mxCell id="3GjjzttWvD9gjzTAAPP_-535" value="Column Wise" style="rounded=0;whiteSpace=wrap;html=1;" vertex="1" parent="1">
          <mxGeometry x="1500" y="120" width="40" height="160" as="geometry" />
        </mxCell>
        <mxCell id="3GjjzttWvD9gjzTAAPP_-536" value="Column Wise" style="rounded=0;whiteSpace=wrap;html=1;" vertex="1" parent="1">
          <mxGeometry x="1560" y="160" width="40" height="160" as="geometry" />
        </mxCell>
        <mxCell id="3GjjzttWvD9gjzTAAPP_-537" value="Row Wise" style="rounded=0;whiteSpace=wrap;html=1;" vertex="1" parent="1">
          <mxGeometry x="1440" y="400" width="160" height="40" as="geometry" />
        </mxCell>
        <mxCell id="3GjjzttWvD9gjzTAAPP_-538" value="Row Wise" style="rounded=0;whiteSpace=wrap;html=1;" vertex="1" parent="1">
          <mxGeometry x="1480" y="440" width="160" height="40" as="geometry" />
        </mxCell>
        <mxCell id="3GjjzttWvD9gjzTAAPP_-539" value="Row Wise" style="rounded=0;whiteSpace=wrap;html=1;" vertex="1" parent="1">
          <mxGeometry x="1520" y="480" width="160" height="40" as="geometry" />
        </mxCell>
        <mxCell id="3GjjzttWvD9gjzTAAPP_-540" value="Row Wise" style="rounded=0;whiteSpace=wrap;html=1;" vertex="1" parent="1">
          <mxGeometry x="1560" y="520" width="160" height="40" as="geometry" />
        </mxCell>
        <mxCell id="3GjjzttWvD9gjzTAAPP_-541" value="Column Wise" style="rounded=0;whiteSpace=wrap;html=1;" vertex="1" parent="1">
          <mxGeometry x="1620" y="200" width="40" height="160" as="geometry" />
        </mxCell>
        <mxCell id="3GjjzttWvD9gjzTAAPP_-553" value="" style="shape=table;startSize=0;container=1;collapsible=0;childLayout=tableLayout;fillColor=#dae8fc;strokeColor=#6c8ebf;movable=1;resizable=1;rotatable=1;deletable=1;editable=1;locked=0;connectable=1;fontSize=8;" vertex="1" parent="1">
          <mxGeometry x="800" y="80" width="160" height="160" as="geometry" />
        </mxCell>
        <mxCell id="3GjjzttWvD9gjzTAAPP_-554" value="" style="shape=tableRow;horizontal=0;startSize=0;swimlaneHead=0;swimlaneBody=0;strokeColor=inherit;top=0;left=0;bottom=0;right=0;collapsible=0;dropTarget=0;fillColor=none;points=[[0,0.5],[1,0.5]];portConstraint=eastwest;movable=1;resizable=1;rotatable=1;deletable=1;editable=1;locked=0;connectable=1;fontSize=8;" vertex="1" parent="3GjjzttWvD9gjzTAAPP_-553">
          <mxGeometry width="160" height="40" as="geometry" />
        </mxCell>
        <mxCell id="3GjjzttWvD9gjzTAAPP_-555" value="" style="shape=partialRectangle;html=1;whiteSpace=wrap;connectable=1;strokeColor=inherit;overflow=hidden;fillColor=none;top=0;left=0;bottom=0;right=0;pointerEvents=1;movable=1;resizable=1;rotatable=1;deletable=1;editable=1;locked=0;fontSize=8;" vertex="1" parent="3GjjzttWvD9gjzTAAPP_-554">
          <mxGeometry width="40" height="40" as="geometry">
            <mxRectangle width="40" height="40" as="alternateBounds" />
          </mxGeometry>
        </mxCell>
        <mxCell id="3GjjzttWvD9gjzTAAPP_-556" value="" style="shape=partialRectangle;html=1;whiteSpace=wrap;connectable=1;strokeColor=inherit;overflow=hidden;fillColor=none;top=0;left=0;bottom=0;right=0;pointerEvents=1;movable=1;resizable=1;rotatable=1;deletable=1;editable=1;locked=0;fontSize=8;" vertex="1" parent="3GjjzttWvD9gjzTAAPP_-554">
          <mxGeometry x="40" width="40" height="40" as="geometry">
            <mxRectangle width="40" height="40" as="alternateBounds" />
          </mxGeometry>
        </mxCell>
        <mxCell id="3GjjzttWvD9gjzTAAPP_-557" value="" style="shape=partialRectangle;html=1;whiteSpace=wrap;connectable=1;strokeColor=inherit;overflow=hidden;fillColor=none;top=0;left=0;bottom=0;right=0;pointerEvents=1;movable=1;resizable=1;rotatable=1;deletable=1;editable=1;locked=0;fontSize=8;" vertex="1" parent="3GjjzttWvD9gjzTAAPP_-554">
          <mxGeometry x="80" width="40" height="40" as="geometry">
            <mxRectangle width="40" height="40" as="alternateBounds" />
          </mxGeometry>
        </mxCell>
        <mxCell id="3GjjzttWvD9gjzTAAPP_-558" value="" style="shape=partialRectangle;html=1;whiteSpace=wrap;connectable=1;strokeColor=inherit;overflow=hidden;fillColor=none;top=0;left=0;bottom=0;right=0;pointerEvents=1;movable=1;resizable=1;rotatable=1;deletable=1;editable=1;locked=0;fontSize=8;" vertex="1" parent="3GjjzttWvD9gjzTAAPP_-554">
          <mxGeometry x="120" width="40" height="40" as="geometry">
            <mxRectangle width="40" height="40" as="alternateBounds" />
          </mxGeometry>
        </mxCell>
        <mxCell id="3GjjzttWvD9gjzTAAPP_-559" value="" style="shape=tableRow;horizontal=0;startSize=0;swimlaneHead=0;swimlaneBody=0;strokeColor=inherit;top=0;left=0;bottom=0;right=0;collapsible=0;dropTarget=0;fillColor=none;points=[[0,0.5],[1,0.5]];portConstraint=eastwest;movable=1;resizable=1;rotatable=1;deletable=1;editable=1;locked=0;connectable=1;fontSize=8;" vertex="1" parent="3GjjzttWvD9gjzTAAPP_-553">
          <mxGeometry y="40" width="160" height="40" as="geometry" />
        </mxCell>
        <mxCell id="3GjjzttWvD9gjzTAAPP_-560" value="" style="shape=partialRectangle;html=1;whiteSpace=wrap;connectable=1;strokeColor=inherit;overflow=hidden;fillColor=none;top=0;left=0;bottom=0;right=0;pointerEvents=1;movable=1;resizable=1;rotatable=1;deletable=1;editable=1;locked=0;fontSize=8;" vertex="1" parent="3GjjzttWvD9gjzTAAPP_-559">
          <mxGeometry width="40" height="40" as="geometry">
            <mxRectangle width="40" height="40" as="alternateBounds" />
          </mxGeometry>
        </mxCell>
        <mxCell id="3GjjzttWvD9gjzTAAPP_-561" value="" style="shape=partialRectangle;html=1;whiteSpace=wrap;connectable=1;strokeColor=inherit;overflow=hidden;fillColor=none;top=0;left=0;bottom=0;right=0;pointerEvents=1;movable=1;resizable=1;rotatable=1;deletable=1;editable=1;locked=0;fontSize=8;" vertex="1" parent="3GjjzttWvD9gjzTAAPP_-559">
          <mxGeometry x="40" width="40" height="40" as="geometry">
            <mxRectangle width="40" height="40" as="alternateBounds" />
          </mxGeometry>
        </mxCell>
        <mxCell id="3GjjzttWvD9gjzTAAPP_-562" value="" style="shape=partialRectangle;html=1;whiteSpace=wrap;connectable=1;strokeColor=inherit;overflow=hidden;fillColor=none;top=0;left=0;bottom=0;right=0;pointerEvents=1;movable=1;resizable=1;rotatable=1;deletable=1;editable=1;locked=0;fontSize=8;" vertex="1" parent="3GjjzttWvD9gjzTAAPP_-559">
          <mxGeometry x="80" width="40" height="40" as="geometry">
            <mxRectangle width="40" height="40" as="alternateBounds" />
          </mxGeometry>
        </mxCell>
        <mxCell id="3GjjzttWvD9gjzTAAPP_-563" value="" style="shape=partialRectangle;html=1;whiteSpace=wrap;connectable=1;strokeColor=inherit;overflow=hidden;fillColor=none;top=0;left=0;bottom=0;right=0;pointerEvents=1;movable=1;resizable=1;rotatable=1;deletable=1;editable=1;locked=0;fontSize=8;" vertex="1" parent="3GjjzttWvD9gjzTAAPP_-559">
          <mxGeometry x="120" width="40" height="40" as="geometry">
            <mxRectangle width="40" height="40" as="alternateBounds" />
          </mxGeometry>
        </mxCell>
        <mxCell id="3GjjzttWvD9gjzTAAPP_-564" value="" style="shape=tableRow;horizontal=0;startSize=0;swimlaneHead=0;swimlaneBody=0;strokeColor=inherit;top=0;left=0;bottom=0;right=0;collapsible=0;dropTarget=0;fillColor=none;points=[[0,0.5],[1,0.5]];portConstraint=eastwest;movable=1;resizable=1;rotatable=1;deletable=1;editable=1;locked=0;connectable=1;fontSize=8;" vertex="1" parent="3GjjzttWvD9gjzTAAPP_-553">
          <mxGeometry y="80" width="160" height="40" as="geometry" />
        </mxCell>
        <mxCell id="3GjjzttWvD9gjzTAAPP_-565" value="" style="shape=partialRectangle;html=1;whiteSpace=wrap;connectable=1;strokeColor=inherit;overflow=hidden;fillColor=none;top=0;left=0;bottom=0;right=0;pointerEvents=1;movable=1;resizable=1;rotatable=1;deletable=1;editable=1;locked=0;fontSize=8;" vertex="1" parent="3GjjzttWvD9gjzTAAPP_-564">
          <mxGeometry width="40" height="40" as="geometry">
            <mxRectangle width="40" height="40" as="alternateBounds" />
          </mxGeometry>
        </mxCell>
        <mxCell id="3GjjzttWvD9gjzTAAPP_-566" value="" style="shape=partialRectangle;html=1;whiteSpace=wrap;connectable=1;strokeColor=inherit;overflow=hidden;fillColor=none;top=0;left=0;bottom=0;right=0;pointerEvents=1;movable=1;resizable=1;rotatable=1;deletable=1;editable=1;locked=0;fontSize=8;" vertex="1" parent="3GjjzttWvD9gjzTAAPP_-564">
          <mxGeometry x="40" width="40" height="40" as="geometry">
            <mxRectangle width="40" height="40" as="alternateBounds" />
          </mxGeometry>
        </mxCell>
        <mxCell id="3GjjzttWvD9gjzTAAPP_-567" value="" style="shape=partialRectangle;html=1;whiteSpace=wrap;connectable=1;strokeColor=inherit;overflow=hidden;fillColor=none;top=0;left=0;bottom=0;right=0;pointerEvents=1;movable=1;resizable=1;rotatable=1;deletable=1;editable=1;locked=0;fontSize=8;" vertex="1" parent="3GjjzttWvD9gjzTAAPP_-564">
          <mxGeometry x="80" width="40" height="40" as="geometry">
            <mxRectangle width="40" height="40" as="alternateBounds" />
          </mxGeometry>
        </mxCell>
        <mxCell id="3GjjzttWvD9gjzTAAPP_-568" value="" style="shape=partialRectangle;html=1;whiteSpace=wrap;connectable=1;strokeColor=inherit;overflow=hidden;fillColor=none;top=0;left=0;bottom=0;right=0;pointerEvents=1;movable=1;resizable=1;rotatable=1;deletable=1;editable=1;locked=0;fontSize=8;" vertex="1" parent="3GjjzttWvD9gjzTAAPP_-564">
          <mxGeometry x="120" width="40" height="40" as="geometry">
            <mxRectangle width="40" height="40" as="alternateBounds" />
          </mxGeometry>
        </mxCell>
        <mxCell id="3GjjzttWvD9gjzTAAPP_-569" value="" style="shape=tableRow;horizontal=0;startSize=0;swimlaneHead=0;swimlaneBody=0;strokeColor=inherit;top=0;left=0;bottom=0;right=0;collapsible=0;dropTarget=0;fillColor=none;points=[[0,0.5],[1,0.5]];portConstraint=eastwest;movable=1;resizable=1;rotatable=1;deletable=1;editable=1;locked=0;connectable=1;fontSize=8;" vertex="1" parent="3GjjzttWvD9gjzTAAPP_-553">
          <mxGeometry y="120" width="160" height="40" as="geometry" />
        </mxCell>
        <mxCell id="3GjjzttWvD9gjzTAAPP_-570" value="" style="shape=partialRectangle;html=1;whiteSpace=wrap;connectable=1;strokeColor=inherit;overflow=hidden;fillColor=none;top=0;left=0;bottom=0;right=0;pointerEvents=1;movable=1;resizable=1;rotatable=1;deletable=1;editable=1;locked=0;fontSize=8;" vertex="1" parent="3GjjzttWvD9gjzTAAPP_-569">
          <mxGeometry width="40" height="40" as="geometry">
            <mxRectangle width="40" height="40" as="alternateBounds" />
          </mxGeometry>
        </mxCell>
        <mxCell id="3GjjzttWvD9gjzTAAPP_-571" value="" style="shape=partialRectangle;html=1;whiteSpace=wrap;connectable=1;strokeColor=inherit;overflow=hidden;fillColor=none;top=0;left=0;bottom=0;right=0;pointerEvents=1;movable=1;resizable=1;rotatable=1;deletable=1;editable=1;locked=0;fontSize=8;" vertex="1" parent="3GjjzttWvD9gjzTAAPP_-569">
          <mxGeometry x="40" width="40" height="40" as="geometry">
            <mxRectangle width="40" height="40" as="alternateBounds" />
          </mxGeometry>
        </mxCell>
        <mxCell id="3GjjzttWvD9gjzTAAPP_-572" value="" style="shape=partialRectangle;html=1;whiteSpace=wrap;connectable=1;strokeColor=inherit;overflow=hidden;fillColor=none;top=0;left=0;bottom=0;right=0;pointerEvents=1;movable=1;resizable=1;rotatable=1;deletable=1;editable=1;locked=0;fontSize=8;" vertex="1" parent="3GjjzttWvD9gjzTAAPP_-569">
          <mxGeometry x="80" width="40" height="40" as="geometry">
            <mxRectangle width="40" height="40" as="alternateBounds" />
          </mxGeometry>
        </mxCell>
        <mxCell id="3GjjzttWvD9gjzTAAPP_-573" value="" style="shape=partialRectangle;html=1;whiteSpace=wrap;connectable=1;strokeColor=inherit;overflow=hidden;fillColor=none;top=0;left=0;bottom=0;right=0;pointerEvents=1;movable=1;resizable=1;rotatable=1;deletable=1;editable=1;locked=0;fontSize=8;" vertex="1" parent="3GjjzttWvD9gjzTAAPP_-569">
          <mxGeometry x="120" width="40" height="40" as="geometry">
            <mxRectangle width="40" height="40" as="alternateBounds" />
          </mxGeometry>
        </mxCell>
        <mxCell id="3GjjzttWvD9gjzTAAPP_-584" value="Text" style="text;html=1;strokeColor=none;fillColor=none;align=center;verticalAlign=middle;whiteSpace=wrap;rounded=0;" vertex="1" parent="1">
          <mxGeometry x="730" y="940" width="60" height="30" as="geometry" />
        </mxCell>
        <mxCell id="3GjjzttWvD9gjzTAAPP_-587" value="reg [31:0] i_c_1 [0:L-1]" style="text;html=1;align=center;verticalAlign=middle;resizable=0;points=[];autosize=1;strokeColor=none;fillColor=none;" vertex="1" parent="1">
          <mxGeometry x="1480" y="80" width="140" height="30" as="geometry" />
        </mxCell>
        <mxCell id="3GjjzttWvD9gjzTAAPP_-588" value="reg [31:0] i_c_3 [0:L-1]" style="text;html=1;align=center;verticalAlign=middle;resizable=0;points=[];autosize=1;strokeColor=none;fillColor=none;" vertex="1" parent="1">
          <mxGeometry x="1600" y="160" width="140" height="30" as="geometry" />
        </mxCell>
        <mxCell id="3GjjzttWvD9gjzTAAPP_-589" value="reg [31:0] i_c_512 [0:L-1]" style="text;html=1;align=center;verticalAlign=middle;resizable=0;points=[];autosize=1;strokeColor=none;fillColor=none;" vertex="1" parent="1">
          <mxGeometry x="1660" y="200" width="160" height="30" as="geometry" />
        </mxCell>
        <mxCell id="3GjjzttWvD9gjzTAAPP_-590" value="reg [31:0] i_c_2 [0:L-1]" style="text;html=1;align=center;verticalAlign=middle;resizable=0;points=[];autosize=1;strokeColor=none;fillColor=none;" vertex="1" parent="1">
          <mxGeometry x="1540" y="120" width="140" height="30" as="geometry" />
        </mxCell>
        <mxCell id="3GjjzttWvD9gjzTAAPP_-591" value="reg [31:0] w_r_1 [0:63]" style="text;html=1;align=center;verticalAlign=middle;resizable=0;points=[];autosize=1;strokeColor=none;fillColor=none;" vertex="1" parent="1">
          <mxGeometry x="1600" y="400" width="140" height="30" as="geometry" />
        </mxCell>
        <mxCell id="3GjjzttWvD9gjzTAAPP_-592" value="reg [31:0] w_r_2 [0:63]" style="text;html=1;align=center;verticalAlign=middle;resizable=0;points=[];autosize=1;strokeColor=none;fillColor=none;" vertex="1" parent="1">
          <mxGeometry x="1640" y="440" width="140" height="30" as="geometry" />
        </mxCell>
        <mxCell id="3GjjzttWvD9gjzTAAPP_-593" value="reg [31:0] w_r_512 [0:63]" style="text;html=1;align=center;verticalAlign=middle;resizable=0;points=[];autosize=1;strokeColor=none;fillColor=none;" vertex="1" parent="1">
          <mxGeometry x="1710" y="520" width="160" height="30" as="geometry" />
        </mxCell>
        <mxCell id="3GjjzttWvD9gjzTAAPP_-594" value="reg [31:0] w_r_3 [0:63]" style="text;html=1;align=center;verticalAlign=middle;resizable=0;points=[];autosize=1;strokeColor=none;fillColor=none;" vertex="1" parent="1">
          <mxGeometry x="1680" y="480" width="140" height="30" as="geometry" />
        </mxCell>
        <mxCell id="3GjjzttWvD9gjzTAAPP_-595" value="reg [31:0] q [0:L-1] [0:63]" style="text;html=1;align=center;verticalAlign=middle;resizable=0;points=[];autosize=1;strokeColor=none;fillColor=none;" vertex="1" parent="1">
          <mxGeometry x="2180" y="80" width="150" height="30" as="geometry" />
        </mxCell>
        <mxCell id="3GjjzttWvD9gjzTAAPP_-626" value="" style="shape=partialRectangle;whiteSpace=wrap;html=1;bottom=1;right=1;left=1;top=0;fillColor=none;routingCenterX=-0.5;rotation=-90;" vertex="1" parent="1">
          <mxGeometry x="1560" y="150" width="320" height="240" as="geometry" />
        </mxCell>
        <mxCell id="3GjjzttWvD9gjzTAAPP_-627" value="" style="endArrow=none;html=1;rounded=0;entryX=1;entryY=0;entryDx=0;entryDy=0;" edge="1" parent="1" target="3GjjzttWvD9gjzTAAPP_-626">
          <mxGeometry width="50" height="50" relative="1" as="geometry">
            <mxPoint x="1480" y="110" as="sourcePoint" />
            <mxPoint x="1530" y="60" as="targetPoint" />
          </mxGeometry>
        </mxCell>
        <mxCell id="3GjjzttWvD9gjzTAAPP_-628" value="" style="shape=partialRectangle;whiteSpace=wrap;html=1;bottom=1;right=1;left=1;top=0;fillColor=none;routingCenterX=-0.5;rotation=-90;" vertex="1" parent="1">
          <mxGeometry x="1600" y="190" width="320" height="240" as="geometry" />
        </mxCell>
        <mxCell id="3GjjzttWvD9gjzTAAPP_-629" value="" style="shape=partialRectangle;whiteSpace=wrap;html=1;bottom=1;right=1;left=1;top=0;fillColor=none;routingCenterX=-0.5;rotation=-90;" vertex="1" parent="1">
          <mxGeometry x="1640" y="230" width="320" height="240" as="geometry" />
        </mxCell>
        <mxCell id="3GjjzttWvD9gjzTAAPP_-630" value="" style="shape=partialRectangle;whiteSpace=wrap;html=1;bottom=1;right=1;left=1;top=0;fillColor=none;routingCenterX=-0.5;rotation=-90;" vertex="1" parent="1">
          <mxGeometry x="1680" y="270" width="320" height="240" as="geometry" />
        </mxCell>
        <mxCell id="3GjjzttWvD9gjzTAAPP_-631" value="" style="endArrow=none;dashed=1;html=1;dashPattern=1 3;strokeWidth=2;rounded=0;" edge="1" parent="1" target="3GjjzttWvD9gjzTAAPP_-626">
          <mxGeometry width="50" height="50" relative="1" as="geometry">
            <mxPoint x="1600" y="260" as="sourcePoint" />
            <mxPoint x="1650" y="210" as="targetPoint" />
          </mxGeometry>
        </mxCell>
        <mxCell id="3GjjzttWvD9gjzTAAPP_-636" value="" style="endArrow=none;dashed=1;html=1;dashPattern=1 3;strokeWidth=2;rounded=0;" edge="1" parent="1">
          <mxGeometry width="50" height="50" relative="1" as="geometry">
            <mxPoint x="1420" y="210" as="sourcePoint" />
            <mxPoint x="1420" y="190" as="targetPoint" />
          </mxGeometry>
        </mxCell>
        <mxCell id="3GjjzttWvD9gjzTAAPP_-637" value="" style="endArrow=none;dashed=1;html=1;dashPattern=1 3;strokeWidth=2;rounded=0;" edge="1" parent="1">
          <mxGeometry width="50" height="50" relative="1" as="geometry">
            <mxPoint x="1420" y="530" as="sourcePoint" />
            <mxPoint x="1420" y="510" as="targetPoint" />
          </mxGeometry>
        </mxCell>
        <mxCell id="3GjjzttWvD9gjzTAAPP_-638" value="" style="endArrow=none;html=1;rounded=0;entryX=1;entryY=0;entryDx=0;entryDy=0;" edge="1" parent="1" target="3GjjzttWvD9gjzTAAPP_-628">
          <mxGeometry width="50" height="50" relative="1" as="geometry">
            <mxPoint x="1540" y="150" as="sourcePoint" />
            <mxPoint x="1590" y="100" as="targetPoint" />
          </mxGeometry>
        </mxCell>
        <mxCell id="3GjjzttWvD9gjzTAAPP_-639" value="" style="endArrow=none;html=1;rounded=0;entryX=1;entryY=0;entryDx=0;entryDy=0;" edge="1" parent="1" target="3GjjzttWvD9gjzTAAPP_-629">
          <mxGeometry width="50" height="50" relative="1" as="geometry">
            <mxPoint x="1600" y="190" as="sourcePoint" />
            <mxPoint x="1650" y="190" as="targetPoint" />
          </mxGeometry>
        </mxCell>
        <mxCell id="3GjjzttWvD9gjzTAAPP_-640" value="" style="endArrow=none;html=1;rounded=0;entryX=1;entryY=0;entryDx=0;entryDy=0;" edge="1" parent="1" target="3GjjzttWvD9gjzTAAPP_-630">
          <mxGeometry width="50" height="50" relative="1" as="geometry">
            <mxPoint x="1660" y="230" as="sourcePoint" />
            <mxPoint x="1710" y="180" as="targetPoint" />
          </mxGeometry>
        </mxCell>
        <mxCell id="3GjjzttWvD9gjzTAAPP_-642" value="" style="endArrow=classic;html=1;rounded=0;entryX=-0.006;entryY=0.315;entryDx=0;entryDy=0;entryPerimeter=0;exitX=1;exitY=1;exitDx=0;exitDy=0;" edge="1" parent="1" source="3GjjzttWvD9gjzTAAPP_-626">
          <mxGeometry width="50" height="50" relative="1" as="geometry">
            <mxPoint x="1840.96" y="110" as="sourcePoint" />
            <mxPoint x="2020" y="110.39999999999998" as="targetPoint" />
          </mxGeometry>
        </mxCell>
        <mxCell id="3GjjzttWvD9gjzTAAPP_-643" value="" style="endArrow=classic;html=1;rounded=0;entryX=-0.006;entryY=0.315;entryDx=0;entryDy=0;entryPerimeter=0;" edge="1" parent="1">
          <mxGeometry width="50" height="50" relative="1" as="geometry">
            <mxPoint x="1880" y="150" as="sourcePoint" />
            <mxPoint x="2020" y="150" as="targetPoint" />
          </mxGeometry>
        </mxCell>
        <mxCell id="3GjjzttWvD9gjzTAAPP_-645" value="" style="endArrow=classic;html=1;rounded=0;entryX=0;entryY=0.813;entryDx=0;entryDy=0;entryPerimeter=0;exitX=1;exitY=1;exitDx=0;exitDy=0;" edge="1" parent="1" source="3GjjzttWvD9gjzTAAPP_-629">
          <mxGeometry width="50" height="50" relative="1" as="geometry">
            <mxPoint x="1920" y="189.79" as="sourcePoint" />
            <mxPoint x="2020" y="189.87000000000003" as="targetPoint" />
          </mxGeometry>
        </mxCell>
        <mxCell id="3GjjzttWvD9gjzTAAPP_-646" value="" style="endArrow=classic;html=1;rounded=0;entryX=0.007;entryY=0.938;entryDx=0;entryDy=0;entryPerimeter=0;" edge="1" parent="1" target="3GjjzttWvD9gjzTAAPP_-529">
          <mxGeometry width="50" height="50" relative="1" as="geometry">
            <mxPoint x="1960" y="230" as="sourcePoint" />
            <mxPoint x="2010" y="180" as="targetPoint" />
          </mxGeometry>
        </mxCell>
        <mxCell id="3GjjzttWvD9gjzTAAPP_-647" value="x 512" style="text;html=1;align=center;verticalAlign=middle;resizable=0;points=[];autosize=1;strokeColor=none;fillColor=none;" vertex="1" parent="1">
          <mxGeometry x="1970" y="230" width="50" height="30" as="geometry" />
        </mxCell>
        <mxCell id="3GjjzttWvD9gjzTAAPP_-648" value="" style="endArrow=none;dashed=1;html=1;dashPattern=1 3;strokeWidth=2;rounded=0;" edge="1" parent="1">
          <mxGeometry width="50" height="50" relative="1" as="geometry">
            <mxPoint x="2000" y="220" as="sourcePoint" />
            <mxPoint x="2000" y="200" as="targetPoint" />
          </mxGeometry>
        </mxCell>
        <mxCell id="3GjjzttWvD9gjzTAAPP_-650" value="" style="verticalLabelPosition=bottom;shadow=0;dashed=0;align=center;html=1;verticalAlign=top;shape=mxgraph.electrical.abstract.summation_point;" vertex="1" parent="1">
          <mxGeometry x="1000" y="1370" width="50" height="50" as="geometry" />
        </mxCell>
        <mxCell id="3GjjzttWvD9gjzTAAPP_-653" value="x 511" style="text;html=1;align=center;verticalAlign=middle;resizable=0;points=[];autosize=1;strokeColor=none;fillColor=none;" vertex="1" parent="1">
          <mxGeometry x="1020" y="1305" width="50" height="30" as="geometry" />
        </mxCell>
        <mxCell id="3GjjzttWvD9gjzTAAPP_-654" value="1" style="text;html=1;align=center;verticalAlign=middle;resizable=0;points=[];autosize=1;strokeColor=none;fillColor=none;" vertex="1" parent="1">
          <mxGeometry x="1445" y="80" width="30" height="30" as="geometry" />
        </mxCell>
        <mxCell id="3GjjzttWvD9gjzTAAPP_-655" value="2" style="text;html=1;align=center;verticalAlign=middle;resizable=0;points=[];autosize=1;strokeColor=none;fillColor=none;" vertex="1" parent="1">
          <mxGeometry x="1505" y="120" width="30" height="30" as="geometry" />
        </mxCell>
        <mxCell id="3GjjzttWvD9gjzTAAPP_-656" value="3" style="text;html=1;align=center;verticalAlign=middle;resizable=0;points=[];autosize=1;strokeColor=none;fillColor=none;" vertex="1" parent="1">
          <mxGeometry x="1565" y="160" width="30" height="30" as="geometry" />
        </mxCell>
        <mxCell id="3GjjzttWvD9gjzTAAPP_-657" value="512" style="text;html=1;align=center;verticalAlign=middle;resizable=0;points=[];autosize=1;strokeColor=none;fillColor=none;" vertex="1" parent="1">
          <mxGeometry x="1620" y="200" width="40" height="30" as="geometry" />
        </mxCell>
        <mxCell id="3GjjzttWvD9gjzTAAPP_-658" value="2" style="text;html=1;align=center;verticalAlign=middle;resizable=0;points=[];autosize=1;strokeColor=none;fillColor=none;" vertex="1" parent="1">
          <mxGeometry x="1480" y="445" width="30" height="30" as="geometry" />
        </mxCell>
        <mxCell id="3GjjzttWvD9gjzTAAPP_-659" value="1" style="text;html=1;align=center;verticalAlign=middle;resizable=0;points=[];autosize=1;strokeColor=none;fillColor=none;" vertex="1" parent="1">
          <mxGeometry x="1440" y="405" width="30" height="30" as="geometry" />
        </mxCell>
        <mxCell id="3GjjzttWvD9gjzTAAPP_-660" value="3" style="text;html=1;align=center;verticalAlign=middle;resizable=0;points=[];autosize=1;strokeColor=none;fillColor=none;" vertex="1" parent="1">
          <mxGeometry x="1520" y="485" width="30" height="30" as="geometry" />
        </mxCell>
        <mxCell id="3GjjzttWvD9gjzTAAPP_-661" value="512" style="text;html=1;align=center;verticalAlign=middle;resizable=0;points=[];autosize=1;strokeColor=none;fillColor=none;" vertex="1" parent="1">
          <mxGeometry x="1555" y="525" width="40" height="30" as="geometry" />
        </mxCell>
        <mxCell id="3GjjzttWvD9gjzTAAPP_-662" value="" style="verticalLabelPosition=bottom;shadow=0;dashed=0;align=center;html=1;verticalAlign=top;shape=mxgraph.electrical.abstract.multiplier;" vertex="1" parent="1">
          <mxGeometry x="1827.5" y="97" width="25" height="25" as="geometry" />
        </mxCell>
        <mxCell id="3GjjzttWvD9gjzTAAPP_-664" value="" style="verticalLabelPosition=bottom;shadow=0;dashed=0;align=center;html=1;verticalAlign=top;shape=mxgraph.electrical.abstract.multiplier;" vertex="1" parent="1">
          <mxGeometry x="1868" y="138" width="25" height="25" as="geometry" />
        </mxCell>
        <mxCell id="3GjjzttWvD9gjzTAAPP_-665" value="" style="verticalLabelPosition=bottom;shadow=0;dashed=0;align=center;html=1;verticalAlign=top;shape=mxgraph.electrical.abstract.multiplier;" vertex="1" parent="1">
          <mxGeometry x="1907" y="178" width="25" height="25" as="geometry" />
        </mxCell>
        <mxCell id="3GjjzttWvD9gjzTAAPP_-666" value="" style="verticalLabelPosition=bottom;shadow=0;dashed=0;align=center;html=1;verticalAlign=top;shape=mxgraph.electrical.abstract.multiplier;" vertex="1" parent="1">
          <mxGeometry x="1948" y="217" width="25" height="25" as="geometry" />
        </mxCell>
        <mxCell id="3GjjzttWvD9gjzTAAPP_-667" value="" style="verticalLabelPosition=bottom;shadow=0;dashed=0;align=center;html=1;verticalAlign=top;shape=mxgraph.electrical.abstract.summation_point;" vertex="1" parent="1">
          <mxGeometry x="2030" y="140.5" width="20" height="20" as="geometry" />
        </mxCell>
        <mxCell id="3GjjzttWvD9gjzTAAPP_-668" value="" style="verticalLabelPosition=bottom;shadow=0;dashed=0;align=center;html=1;verticalAlign=top;shape=mxgraph.electrical.abstract.summation_point;" vertex="1" parent="1">
          <mxGeometry x="2030" y="180" width="20" height="20" as="geometry" />
        </mxCell>
        <mxCell id="3GjjzttWvD9gjzTAAPP_-669" value="" style="endArrow=none;dashed=1;html=1;dashPattern=1 3;strokeWidth=2;rounded=0;" edge="1" parent="1">
          <mxGeometry width="50" height="50" relative="1" as="geometry">
            <mxPoint x="2039.9" y="220" as="sourcePoint" />
            <mxPoint x="2039.9" y="200" as="targetPoint" />
          </mxGeometry>
        </mxCell>
        <mxCell id="3GjjzttWvD9gjzTAAPP_-673" value="" style="verticalLabelPosition=bottom;shadow=0;dashed=0;align=center;html=1;verticalAlign=top;shape=mxgraph.electrical.abstract.summation_point;" vertex="1" parent="1">
          <mxGeometry x="2030" y="219" width="20" height="20" as="geometry" />
        </mxCell>
        <mxCell id="3GjjzttWvD9gjzTAAPP_-674" value="x 511" style="text;html=1;align=center;verticalAlign=middle;resizable=0;points=[];autosize=1;strokeColor=none;fillColor=none;" vertex="1" parent="1">
          <mxGeometry x="2050" y="214" width="50" height="30" as="geometry" />
        </mxCell>
        <mxCell id="3GjjzttWvD9gjzTAAPP_-675" value="Q = Q_1 + Q_2 + ... + Q_512" style="text;html=1;align=center;verticalAlign=middle;resizable=0;points=[];autosize=1;strokeColor=none;fillColor=none;" vertex="1" parent="1">
          <mxGeometry x="2010" y="239" width="180" height="30" as="geometry" />
        </mxCell>
        <mxCell id="3GjjzttWvD9gjzTAAPP_-676" value="Min(PE) = (2 x 64) x 512 = 65k개&lt;br&gt;Max(PE) = (256 x 64) x 512 = 8388k개&lt;br&gt;&lt;br&gt;Min(Register 32bit) = PE x 4B = 260kB&lt;br&gt;Max(Register 32bit) = PE x 4B = 33MB&lt;br&gt;&lt;br&gt;Min(clk) = (4clk x 512) = 2048clk&lt;br&gt;Max(clk) = (4clk x 512) = 2048clk" style="text;html=1;align=center;verticalAlign=middle;resizable=0;points=[];autosize=1;strokeColor=none;fillColor=none;" vertex="1" parent="1">
          <mxGeometry x="1250" y="637.5" width="230" height="130" as="geometry" />
        </mxCell>
        <mxCell id="3GjjzttWvD9gjzTAAPP_-677" value="Min(PE) = (2 x 64) x 511 = 65k개&lt;br&gt;Max(PE) = (256 x 64) x 511 = 8372k개&lt;br&gt;&lt;br&gt;Min(Register 32bit) = 2 x 64 x4B = 512B&lt;br&gt;Max(Register 32bit) = 256 x 64 x 4B= 65536B = 66kB&lt;br&gt;&lt;br&gt;Min(clk) = (4clk x 511) = 2044clk&lt;br&gt;Max(clk) = (4clk x 511) = 2044clk" style="text;html=1;align=center;verticalAlign=middle;resizable=0;points=[];autosize=1;strokeColor=none;fillColor=none;" vertex="1" parent="1">
          <mxGeometry x="1650" y="640" width="310" height="130" as="geometry" />
        </mxCell>
        <mxCell id="3GjjzttWvD9gjzTAAPP_-679" value="" style="verticalLabelPosition=bottom;shadow=0;dashed=0;align=center;html=1;verticalAlign=top;shape=mxgraph.electrical.abstract.multiplier;" vertex="1" parent="1">
          <mxGeometry x="1210" y="690" width="30" height="30" as="geometry" />
        </mxCell>
        <mxCell id="3GjjzttWvD9gjzTAAPP_-680" value="" style="verticalLabelPosition=bottom;shadow=0;dashed=0;align=center;html=1;verticalAlign=top;shape=mxgraph.electrical.abstract.summation_point;" vertex="1" parent="1">
          <mxGeometry x="1620" y="687.5" width="30" height="30" as="geometry" />
        </mxCell>
        <mxCell id="3GjjzttWvD9gjzTAAPP_-684" value="&lt;추후 개선방안&gt;&#xa;1. 한 요소 x 한 요소가 아닌 여러 요소를 동시에 곱하는 multiplier구조 설계&#xa;    --&gt; Q행렬을 쪼개는 방식으로 설계(몇개를 동시에 연산할지, 직/병렬구조 고안)&#xa;    --&gt; 하드웨어 사이즈 감소, 클럭수 증가(hw size / clk 는 반비례 관계)&#xa;&#xa;2. Input 행렬을 쪼개는 방식과 Q 행렬에 address를 지정하는 것은 SRAM에서 해야하므로 추후에 설계&#xa;&#xa;3. Input Column 및 W_Q Row는 쪼개졌다고 fix 후 그 이후 과정 도식화하기&#xa;&#xa;4. Register 사이즈는 같거나 아주 조금 줄었을 것, 어쩔 수 없으니 무시하고 설계" style="text;whiteSpace=wrap;fontSize=18;" vertex="1" parent="1">
          <mxGeometry x="1210" y="859" width="930" height="261" as="geometry" />
        </mxCell>
      </root>
    </mxGraphModel>
  </diagram>
</mxfile>
